<?xml version="1.0" encoding="UTF-8"?><svg xmlns="http://www.w3.org/2000/svg" xmlns:xlink="http://www.w3.org/1999/xlink" height="514.6" preserveAspectRatio="xMidYMid meet" version="1.0" viewBox="-4.8 -4.3 662.4 514.6" width="662.4" zoomAndPan="magnify"><g id="change1_1"><path d="m616.19 507.94c-9.6241-1.7559-18.291-13.947-14.928-20.999 3.9036-8.1858-1.325-12.803-7.3109-6.456-3.0755 3.2609-3.5718 3.4602-7.1805 2.8832-5.7762-0.92365-7.0855-1.9665-8.7462-6.9663-2.4138-7.2673-10.762-16.922-22.003-25.448-3.7243-2.8246-8.7463-7.1809-11.16-9.6806-2.4138-2.4997-6.6251-5.5538-9.3584-6.787-2.7333-1.2331-6.0455-3.0883-7.3604-4.1226-2.2354-1.7584-2.5752-1.7851-5.232-0.41128-3.4705 1.7947-9.4303 1.1096-15.345-1.7639-4.371-2.1236-4.2917-2.1311-17.718 1.687-6.4176 1.825-20.248 0.70737-24.327-1.9659-1.1814-0.7741-3.9525-1.7155-6.1579-2.092-10.774-1.8393-7.7037-7.4605 12.948-23.705 6.0949-4.7943 5.9315-5.4144-1.9999-7.5871-7.9007-2.1643-17.741-6.5884-22.106-9.9384-4.821-3.6999-20.269-13.913-22.117-14.622-0.86523-0.33202-1.7932-1.4453-2.0622-2.4739-0.29832-1.1408-1.2792-1.8703-2.5149-1.8703-1.1142 0-2.9484-0.64624-4.0761-1.4361-1.1277-0.78984-3.6563-2.0027-5.6192-2.6953-9.0957-3.2091-12.401-6.7879-12.421-13.447l-0.0143-4.9219h-5.0412c-2.7727 0-7.9407-0.59116-11.484-1.3137-8.0264-1.6365-19.391-3.371-22.164-3.3826-3.2322-0.0136-26.036-7.7319-39.592-13.4-6.7031-2.803-15.141-6.2636-18.75-7.6902-7.4297-2.9367-12.781-5.575-20.36-10.038-2.8779-1.6947-6.6462-3.9148-8.3738-4.9335-1.7277-1.0187-3.4138-1.9885-3.747-2.155-0.33317-0.16654-0.54411 4.042-0.46875 9.3522 0.13771 9.7042-3.1431 19.904-8.3849 26.069-1.0729 1.2618-2.3374 6.1894-5.0501 19.68-0.92651 4.6076-3.0545 11.06-5.1017 15.469-0.71826 1.5469-2.6626 5.6369-4.3208 9.0889-5.3529 11.144 2.9932 24.788 21.035 34.388 3.0472 1.6214 6.0003 3.3107 6.5625 3.7539 0.56217 0.44322 2.4987 1.3067 4.3034 1.9189 2.0994 0.71219 4.9696 3.1413 7.9688 6.7442 2.5781 3.0971 6.1583 6.2572 7.956 7.0226 4.4744 1.9049 7.2976 4.7504 8.0324 8.096 0.33927 1.5447 1.3104 3.0046 2.158 3.2442 2.3514 0.66478 8.5724 8.8904 8.5724 11.335 0 1.5644 0.78569 2.4359 2.8426 3.1529 2.8776 1.0031 5.5949 5.5581 5.5949 9.3787 0 0.9904 1.6506 3.9975 3.6679 6.6824 4.4285 5.8939 7.4197 15.006 5.6328 17.159-5.3577 6.4557-20.364 5.9914-32.856-1.0165-2.2556-1.2654-6.0899-3.367-8.5206-4.67-5.3718-2.8797-6.5232-4.8415-6.221-10.599 0.12785-2.436-0.3722-6.05-1.1112-8.0311-1.456-3.9032 5e-3 -6.2417 3.899-6.2417 0.89795 0 1.9105-0.87554 2.2502-1.9456 0.75915-2.3919-0.1342-3.4738-1.6318-1.9762-5.8008 5.8008-17.972 7e-3 -17.151-8.1632l0.62627-6.2362-4.4964-4.4331c-2.47-2.41-4.9-4.4-5.4-4.4-0.49905 0-1.7783-0.77547-2.8428-1.7233-1.0645-0.9478-3.412-2.303-5.2167-3.0116-1.8047-0.70857-5.6186-3.0962-8.4754-5.3059-11.035-8.5353-23.34-15.272-27.896-15.272-10.573 0-18.511-18.127-11.172-25.51 6.7714-6.8121 12.021-20.996 10.017-27.067-0.64584-1.957-0.94415-5.2738-0.66289-7.3707 0.48833-3.6407 0.32822-3.9442-3.5507-6.7298-2.7201-1.9534-4.7017-4.404-5.9981-7.4175-2.0154-4.6849-3.9425-6.5696-11.794-11.534-4.0376-2.5531-11.544-11.815-12.919-15.941-0.66591-1.9978-5.4971 0.41299-6.8145 3.4004-1.6413 3.722-3.6148 6.2948-4.8286 6.2948-0.50492 0-1.36 0.9701-1.9003 2.1558-2.1647 4.751-22.841 14.829-35.215 17.164-4.2337 0.79902-10.018 1.8906-12.854 2.4258-2.8359 0.53519-5.7891 1.5238-6.5625 2.1968-0.77344 0.67307-2.6719 1.5268-4.2188 1.8971-5.9563 1.426-7.6096 2.9268-9.779 8.8766-1.154 3.1651-2.9063 6.5627-3.894 7.5504-0.98766 0.98765-1.7957 2.4434-1.7957 3.235 0 2.2306-2.7834 6.0515-8.5127 11.686-7.2843 7.1634-12.937 20.724-15.045 36.094-1.9062 13.895-2.0622 21.546-0.46628 22.871 0.83829 0.69572 1.5242 1.8313 1.5242 2.5234 0 0.69216 0.78594 1.6791 1.7465 2.1932 0.99868 0.53448 1.9851 2.4048 2.3037 4.368 0.60768 3.7447 2.9575 6.9508 5.0944 6.9508 2.9918 0 12.418 6.7787 12.418 8.9302 0 1.3127 0.70358 2.2851 1.875 2.5915 2.3072 0.60336 2.6004 5.4592 0.43793 7.2539-1.2615 1.047-1.1012 1.4904 1.3125 3.6304 1.5123 1.3408 3.9519 4.7581 5.4215 7.594 1.4695 2.8359 3.1992 5.4936 3.8437 5.906 6.777 4.3356-10.433 8.4185-24.436 5.7972-7.7703-1.4546-14-5.1272-18.297-10.786-1.7532-2.3093-4.4045-4.9784-5.8917-5.9314-3.4683-2.2224-3.7061-9.0486-0.31533-9.0486 1.8023 0 2.6881-1.8606 1.4671-3.0817-0.57382-0.57383-1.0433-1.933-1.0433-3.0204 0-4.5657-1.7144-5.2726-8.6631-3.5726-12.572 3.0758-21.442-10.926-12.924-20.401 2.0489-2.2789 4.2095-5.3036 4.8012-6.7216 0.59177-1.418 1.4358-2.5781 1.8756-2.5781 0.93485 0 3.5031-4.7402 4.7958-8.8515 0.49583-1.577 1.4908-10.461 2.211-19.742 0.72022-9.2812 1.6899-18.984 2.1549-21.562 0.46498-2.5781 0.49191-4.9111 0.05985-5.1844-0.68721-0.43464-2.3476-8.1793-1.9931-9.2962 0.61542-1.9386 4.8694-0.78245 4.8694 1.3235 0 2.19 0.3292 2.3758 4.2096 2.3758 4.394 0 10.704-6.1596 10.767-10.51 0.01278-0.88227 1.8295-3.8354 4.0371-6.5625s5.2662-6.9811 6.7969-9.4534c4.0633-6.5628 5.8216-8.7109 6.5425-7.9929 1.0246 1.0205-4.9036 11.322-9.9507 17.291-2.5504 3.0164-5.0393 6.9777-5.5308 8.8029-2.4085 8.9445-11.288 14.974-15.903 10.798-1.3891-1.2571-1.5285-0.86667-1.5903 4.4531-0.03725 3.2071-0.34026 10.472-0.67336 16.144-0.3331 5.6719-0.58833 12.633-0.56718 15.469 0.07035 9.4306-4.636 22.932-9.9859 28.648-5.6672 6.0545-9.3069 12.602-7.0053 12.602 0.45884 0 1.7226 1.8899 2.8084 4.1999 2.145 4.5632 5.0985 6.082 8.3959 4.3174 5.853-3.1324 11.559-0.72323 13.133 5.5453 1.9251 7.6661 1.8065 9.807-0.56191 10.143-4.3777 0.62173-1.8501 1.7931 4.9843 2.31 4.7559 0.35969 8.7976 0.0927 12.264-0.81021 2.8437-0.74069 5.5578-1.1073 6.0313-0.8146 0.47353 0.29266 0.86096 0.11117 0.86096-0.40329s1.8984-1.2201 4.2188-1.568c3.8924-0.5837 5.2419-1.5812 3.5156-2.5984-0.38672-0.2279-4.7109 0.58486-9.6094 1.8061-9.0217 2.2493-17.812 2.9437-17.812 1.4072 0-0.46223 3.6914-1.3534 8.2031-1.9805 18.111-2.5171 21.376-6.6176 10.078-12.655-7.3627-3.9344-11.642-8.5562-11.712-12.649-0.0132-0.77344-1.0616-3.5156-2.3299-6.0938-2.9827-6.0635-2.1797-26.835 1.3411-34.688 0.46236-1.0312 1.0406-2.9297 1.285-4.2188 0.53043-2.7977 2.2133-7.5 4.5514-12.718 0.931-2.1 1.7-4.47 1.7-5.27 0-0.79847 2.712-3.9075 6.0267-6.9089 5.2848-4.7854 10.848-13.071 10.848-16.155 0-0.46817 0.84375-1.6148 1.875-2.5481 1.0312-0.93327 1.875-2.3218 1.875-3.0856 0-1.8415-4.2025 2.3414-5.0345 5.0112-0.97988 3.144-7.8224 9.6242-12.331 11.678-2.3083 1.0515-4.1969 2.3232-4.1969 2.826 0 0.50274-0.66375 0.91407-1.475 0.91407-3.1766 0-0.62838-3.2763 4.6311-5.9543 5.6167-2.8599 11.844-8.3898 11.844-10.518 0-0.65137 0.33205-1.3249 0.73788-1.4968 0.40583-0.17188 1.9733-2.4219 3.4833-5 1.9302-3.2956 2.845-4.2003 3.0809-3.0469 0.45032 2.2026 1.8076 2.0786 2.541-0.23219 0.32692-1.0301 1.7265-2.1352 3.1101-2.4558 1.3836-0.32062 6.5234-2.508 11.422-4.8609 8.1332-3.9067 10.955-5.8687 21.397-14.878l3.4466-2.9736 0.32583-9.0076c0.22489-6.2171-0.0343-9.4415-0.83672-10.408-1.3615-1.6405-0.62829-2.7508 1.3221-2.0024 3.86 1.4812 2.5969 23.02-1.5958 27.213-1.1097 1.1097-1.8828 2.6045-1.718 3.3219 0.18812 0.81919-0.21532 1.1068-1.0847 0.77317-0.86138-0.33054-1.563 0.15252-1.8576 1.279-0.28335 1.0835-1.286 1.8101-2.4978 1.8101-2.3853 0-5.6511 1.5937-5.6511 2.7577 0 0.45791 1.3387 0.471 3.0469 0.0298 1.6758-0.43283 5.3672-1.2851 8.2031-1.8939 6.1906-1.329 13.963-5.3339 15.381-7.9249 1.4309-2.6158 2.2247-3.0972 7.8844-4.7805 2.8648-0.85207 5.1948-2.1439 5.4802-3.0384 1.6634-5.2135 4.7496-10.472 6.6552-11.341 2.6548-1.2096 1.9389-2.8719-1.237-2.8719-1.2586 0-2.2884-0.34124-2.2884-0.75832 0-0.41707-0.641-1.5772-1.4244-2.5781-1.2996-1.6604-1.3744-1.2448-0.8532 4.7427 0.89155 10.242-4.2792 16.27-10.475 12.211-4.4341-2.9053-8.0752-22.055-4.1935-22.055 0.4072 0 0.97598 3.4376 1.264 7.6392 0.78391 11.437 6.4718 17.01 9.951 9.7511 1.3197-2.7535 0.52566-14.128-1.2958-18.562-1.2451-3.0311 1.361-1.7178 2.7906 1.4062 1.3669 2.987 1.39 2.9087 1.1746-3.9844-0.17889-5.7227 0.0419-7.0312 1.1865-7.0312 1.1096 0 1.4649 1.5815 1.6842 7.4967 0.47325 12.763 8.6283 11.312 8.6283-1.535 0-2.8203 0.36479-4.4407 0.92215-4.0962 1.8777 1.1605 0.97874 14.71-1.0104 15.23-2.1205 0.55453-2.3397 1.9702-0.41912 2.7072 3.3501 1.2856 15.507-6.1549 15.507-9.4908 0-0.69359 1.2656-2.5267 2.8125-4.0736 3.1686-3.1686 3.4306-3.8942 1.4062-3.8942-2.3645 0-1.5776-2.2802 1.9587-5.6755 5.647-5.4218 7.6676-10.605 10.205-26.18 0.47883-2.9388-0.33113-6.9213-3.4121-16.777-2.4401-7.8054-2.5302-21.045-0.13999-20.562 1.1019 0.22301 1.4813 1.9786 1.6833 7.7879 0.16299 4.6883 1.0088 9.5845 2.2563 13.06 2.9888 8.3278 2.7537 30.126-0.37644 34.903-0.76656 1.1699-1.3938 2.5342-1.3938 3.0316 0 1.4457 8.6014-3.6775 12.107-7.2114 5.1803-5.2216 12.458-7.2841 17.043-4.83 3.0208 1.6167 1.1097 2.7079-3.7372 2.1339-5.7913-0.6859-7.3286 1.1366-1.7452 2.069 3.8846 0.64877 11.086 4.0409 17.445 8.2166 3.0147 1.9799 8.6167 6.6947 18.503 15.573 15.866 14.248 64.719 36.821 88.509 40.896 4.8984 0.83912 10.594 1.8808 12.656 2.3148 31.652 6.6604 35.588 6.1592 25.445-3.2407-2.3942-2.2188-3.3408-5.1971-1.6518-5.1971 0.97108 0 7.6129 7.92 7.6129 9.0779 0 0.43648 0.80973 2.3044 1.7994 4.1509s2.3101 5.953 2.9342 9.1255c1.2185 6.1934 3.5087 8.5422 9.7976 10.048 4.1511 0.99389 8.0781 3.1002 11.25 6.0342 1.5469 1.4308 4.7116 3.5984 7.0327 4.8169 4.5779 2.4032 9.8304 6.1301 15.002 10.644 4.273 3.7302 17.667 10.233 24.936 12.107 6.0339 1.5554 14.786 4.7223 22.107 7.9993 4.7168 2.1114 13.856 11.536 13.879 14.313 8e-3 1.0685 1.0613 1.7948 3.1756 2.1914 1.7393 0.3263 6.4285 2.4548 10.42 4.73 3.9919 2.2752 8.0086 4.1367 8.926 4.1367 0.91739 0 3.0228 1.2656 4.6788 2.8125 1.6559 1.5469 3.5079 2.8125 4.1156 2.8125 0.60761 0 3.4106 2.3585 6.229 5.2411 2.8183 2.8826 9.343 8.611 14.499 12.73 11.393 9.1008 15.498 13.721 19.994 22.507 4.8225 9.4222 11.641 10.431 15.829 2.3423 0.92201-1.7808 2.8814-5.1911 4.3542-7.5784 2.1366-3.4633 2.4519-4.6128 1.5599-5.6876-0.61486-0.74087-0.87531-1.7396-0.57879-2.2194 0.80182-1.2974-1.2699-2.6405-6.0027-3.8918-2.3203-0.61346-6.3281-2.7143-8.9062-4.6686s-6.0376-4.2358-7.6878-5.07c-1.6502-0.83423-3.3376-2.0441-3.75-2.6887-0.41234-0.64454-2.4174-2.0156-4.4557-3.0469-5.8503-2.9599-15.495-12.073-15.506-14.652-4e-3 -0.83978-1.2723-2.0511-2.8192-2.6919-1.5469-0.64073-2.8125-1.546-2.8125-2.0117 0-2.2009-8.1232-13.335-12.249-16.79-6.8815-5.7615-6.0915-1.9557 0.99884 4.8122 6.1754 5.8945 6.7858 7.9439 3.1544 10.591-3.9874 2.9064-9.5387 1.4387-9.6871-2.5612-0.0164-0.44188 0.70847-0.49309 1.6108-0.11381 6.4525 2.7122 8.2129 0.67303 4.3969-5.0933-2.7793-4.1998-5.1292-4.8339-8.6849-2.3433-3.6518 2.5578-5.6491 0.85036-2.6577-2.272 2.2715-2.371 3.4823-5.5086 1.7895-4.6372-9.7564 5.0222-16.039 2.8688-16.488-5.6512-0.201-3.8159 1.323-4.216 2.4693-0.64822 2.0351 6.3344 4.3212 7.2055 10.634 4.0526 5.5791-2.7863 5.6134-5.586 0.10268-8.3739-7.1732-3.6289-17.098-13.846-24.755-25.483-2.3038-3.5015-7.9729-10.238-12.598-14.97-7.6898-7.8675-9.4796-10.856-6.9443-11.594 0.51562-0.15012 1.7812 1.0442 2.8125 2.6541 4.8172 7.52 17.018 3.5874 26.335-8.4883 3.9242-5.086 5.0709-5.8033 5.0709-3.1719 0 4.5921-11.03 14.745-18.905 17.402-4.5495 1.5348-5.6447 3.7171-2.6655 5.3115 3.3879 1.8131 9.7033-1.3747 16.933-8.5473 4.7202-4.6829 7.4413-6.6158 10.433-7.4113 14.869-3.9531 23.917-13.498 27.131-28.619 2.9786-14.017 3.494-15.264 8.3715-20.245 2.5517-2.606 4.6394-5.4874 4.6394-6.4033 0-0.91588 0.60904-2.1707 1.3534-2.7885 1.6489-1.3684 4.6773-10.329 6.5727-19.449 1.2398-5.9647 1.2432-8.2514 0.0295-19.688-0.75523-7.1164-1.3777-13.729-1.3832-14.694-8e-3 -1.4538-0.25164-1.5549-1.4163-0.58834-0.77344 0.6419-1.4062 1.5615-1.4062 2.0436 0 0.94897-7.3626 11.789-10.898 16.045-2.547 3.0663-5.1322 8.7004-6.8636 14.958-0.90908 3.2857-1.6916 4.4531-2.9852 4.4531-4.5489 0 0.0142-10.955 10.28-24.68 6.7572-9.0343 10.758-16.181 11.855-21.175 0.36045-1.6411 1.475-3.4911 2.4767-4.111 5.1564-3.1911 14.973-27.829 11.604-29.122-0.77344-0.29679-1.4062-1.1417-1.4062-1.8776 3e-5 -1.1638-8.0782-7.1584-9.6465-7.1584-0.90661 0-12.46-8.2406-13.776-9.8253-0.65034-0.78361-1.7636-1.4247-2.4739-1.4247s-1.2915-0.3823-1.2915-0.84955c0-3.0914-19.751-13.747-22.628-12.207-1.9403 1.0384-1.9308 1.0833 0.74558 3.5386 6.2518 5.7352 7.0277 16.081 1.2061 16.081-1.9203 0-2.1795-0.40237-3.1698-4.9219-0.42669-1.9473-1.1204-2.5781-2.8355-2.5781-3.2721 0-3.541 1.1857-0.91183 4.0211 2.1388 2.3066 4.1556 6.2647 4.1556 8.1555 0 1.8081-4.9174 6.4749-7.3964 7.0194-1.462 0.32112-3.5902 1.6557-4.7292 2.9657-1.963 2.2576-2.373 2.3421-7.8633 1.6194-7.5142-0.98902-11.395-0.86311-16.574 0.53775-5.9045 1.5972-11.462 0.62819-21.163-3.6897-4.6028-2.0488-8.9022-3.7317-9.5543-3.7397s-2.0216-1.3856-3.0434-3.0614c-2.286-3.7493-2.4151-1.7441-0.27262 4.2335 2.5324 7.0655-0.22539 15.688-5.0176 15.688-2.5463 0-3.9347-2.3899-2.324-4.0005 1.5209-1.5209 1.2479-7.5649-0.7087-15.687l-1.6938-7.0312-0.73929 3.6407c-0.44206 2.1769-0.28281 6.195 0.39609 9.9938 1.77 9.904-0.40566 19.939-4.9713 22.931-5.1391 3.3673-6.7652-1.3304-3.4085-9.8466 1.9903-5.0495 2.4084-8.9347 1.0516-9.7732-0.45284-0.27987-1.0822 0.78514-1.3985 2.3667-0.71119 3.5559-7.212 13.923-8.7472 13.95-2.5399 0.044-2.7106-2.9594-0.54562-9.6003 1.6384-5.0255 1.973-7.3344 1.3195-9.1036-2.1331-5.7748-3.1372-11.601-2.6873-15.592 0.43718-3.8787 0.34087-4.1696-0.95209-2.8767-1.7838 1.7838-1.8582 7.8344-0.22173 18.015 1.2042 7.4911 0.72781 14.49-0.98624 14.49-0.49226 0-0.89502-2.2317-0.89502-4.9593s-0.6334-7.3911-1.4076-10.363c-1.7594-6.7546-2.0757-16.367-0.62752-19.069 1.8901-3.5263 1.2144-4.589-1.3116-2.063-4.4662 4.4662-4.4891 12.427-0.0685 23.798 0.80184 2.0625 1.4764 6.0238 1.499 8.8029 0.028 3.4378 0.5042 5.3915 1.4898 6.1122 1.3065 0.95535 1.3065 1.3994 0 4.5264-0.79675 1.9069-1.4486 4.5104-1.4486 5.7856 0 4.6596-2.3879 3.8922-4.9189-1.5808-1.6507-3.5694-5.4475-3.4451-7.7332 0.25331-2.4667 3.9912-4.2775-1.4229-1.8791-5.6183 0.7369-1.2891 1.3508-3.1875 1.3642-4.2188 0.0154-1.1786-1.0169-0.0593-2.7793 3.0137-1.542 2.6888-2.8037 5.9334-2.8037 7.2103 0 3.5156-1.8959 4.003-4.3723 1.124-1.5752-1.8313-2.1902-3.7006-2.1902-6.6574 0-2.2611-0.37546-4.3432-0.83437-4.6268-1.84-1.16-5.7-15.39-5.7-21.1 0-5.135-0.16363-5.6598-1.3841-4.4393-1.7222 1.7222-13.124 3.8349-17.439 3.2314-14.483-2.0253-28.969-4.9695-31.729-6.4487-1.8296-0.98062-3.7557-1.7829-4.2801-1.7829-1.364 0-25.289-14.491-29.074-17.609-1.5531-1.2796-7.2427-3.9532-8.4127-3.9532-0.60135 0-2.511-1.2656-4.2436-2.8125s-3.707-2.8125-4.3876-2.8125c-0.68057 0-1.2374-0.35544-1.2374-0.78987s-1.4766-1.585-3.2812-2.5569c-1.8047-0.97189-3.2812-2.0153-3.2812-2.3187 0-1.9924-28.156-13.658-37.31-15.458-6.58-1.2939-36.233-0.67988-43.863 0.90833-16.064 3.3435-29.462 7.606-35.685 11.353-2.9561 1.7801-5.8945 3.2365-6.5298 3.2365-0.63529 0-2.3721 1.024-3.8595 2.2756-7.7422 6.5146-20.834 9.0342-30.948 5.956-5.229-1.5914-26.564-11.565-27.4-12.808-0.27341-0.40668-2.1846-1.2004-4.2471-1.7639-2.0625-0.56346-5.6484-1.7356-7.9688-2.6049-17.892-6.7028-51.448 2.5097-59.638 16.373-0.93731 1.5867-2.0446 2.885-2.4606 2.885-1.1597 0-10.877 15.469-11.594 18.456-0.34819 1.4506-1.2422 3.8454-1.9867 5.3217-1.4998 2.9741-3.4767 10.302-4.3342 16.066-1.1175 7.5115 0.99361 33.647 2.9992 37.13 1.0079 1.7503 2.1358 4.6351 2.5064 6.4106 0.37064 1.7755 1.2553 3.8095 1.9658 4.5201 0.71057 0.71057 1.2919 2.2864 1.2919 3.5018s0.54516 2.7673 1.2115 3.4487c0.66631 0.68136 1.7517 2.5606 2.4121 4.176 0.66033 1.6155 2.2245 3.8275 3.476 4.9157 1.2547 1.0909 2.2754 3.0118 2.2754 4.2818 0 1.2668 0.55879 2.6407 1.2418 3.0531 0.68296 0.41234 3.5303 6.8386 6.3274 14.281 5.1995 13.834 7.2151 15.73 3.7886 3.5642-4.863-17.2-5.245-18.3-11.349-32.56-26.425-61.79-1.885-117.04 50.128-112.86 9.1627 0.73532 26.719 7.2091 26.719 9.8526 0 1.6017-3.5849 0.77262-10.526-2.4344-8.0149-3.7031-22.737-5.334-30.489-3.3776-2.1914 0.55298-5.7773 1.4515-7.9688 1.9967-2.1914 0.54519-4.3852 1.3889-4.875 1.875-0.48984 0.48605-1.5445 0.88575-2.3438 0.88824-4.1557 0.0129-23.74 22.874-25.543 29.818-6.3838 24.579-3.4362 47.754 9.8005 77.053 11.317 25.049 15.5 72.188 6.4065 72.188-0.40611 0-1.4813 1.793-2.3893 3.9844-0.90799 2.1914-2.4085 5.6719-3.3344 7.7344-2.5317 5.6393-3.3984 13.594-1.4812 13.594 1.1306 0 1.4978 0.96957 1.5089 3.9844 0.0081 2.1914 0.62584 6.5156 1.3729 9.6094 1.5887 6.5796 1.8228 12.656 0.4875 12.656-0.51562 0-0.95253-1.582-0.9709-3.5156-0.0361-3.8011-2.2665-14.1-3.2686-15.093-0.33837-0.33535-0.38272 0.86683-0.09857 2.6715 1.7274 10.971 1.654 21.205-0.18701 26.05-1.0216 2.6887-1.5239 5.0947-1.1162 5.3466 1.1155 0.6894 2.5343-1.4197 3.9011-5.7991 0.70637-2.2633 1.9281-4.1103 2.8843-4.3603 0.91238-0.23859 1.9374-1.2121 2.2779-2.1634 0.34046-0.9513 1.0809-2.3215 1.6454-3.045 1.9741-2.53 2.9992-11.005 2.2943-18.969-0.59532-6.7258-0.3583-9.2203 1.6664-17.537 1.9955-8.1975 2.546-14.597 0.77011-8.9534-0.62884 1.9985-1.0714 2.78-3.6297 6.4098-2.6662 3.7829-3.2066 15.974-0.99642 22.476 1.5924 4.6848 1.3345 11.354-0.36171 9.3528-5.1534-6.0807-5.033-31.625 0.17815-37.781 3.6883-4.3577 6.1787-18.353 5.7235-32.165-0.31843-9.6618-0.94546-13.072-5.0476-27.455-1.8438-6.4645-1.8444-6.5275-0.03893-4.2188 1.008 1.2891 1.8422 2.9977 1.8536 3.7969 0.01147 0.79921 0.4103 1.8539 0.88629 2.3438 1.302 1.3398 2.9823 10.266 3.521 18.703 0.70822 11.093 2.1761 10.998 2.1761-0.14136 0-9.8759-0.51273-12.231-4.663-21.421-1.3972-3.0938-3.7369-8.3672-5.1994-11.719-1.4625-3.3516-3.1498-6.7266-3.7495-7.5-1.8969-2.4463-9.0546-20.434-9.4079-23.642-0.18632-1.692-0.81502-5.8185-1.3971-9.17-4.0268-23.186 10.658-65.311 22.887-65.655 0.58364-0.0164 1.8801-0.64922 2.881-1.4062 1.0009-0.75704 2.5829-1.3764 3.5156-1.3764s1.6958-0.39345 1.6958-0.87432c0-0.48088 0.94922-1.1285 2.1094-1.4391 1.1602-0.31062 3.6997-1.0421 5.6434-1.6256 3.3369-1.0017 25.521 0.33775 26.801 1.6182 1.0265 1.0265-0.95108 1.2661-12.069 1.462-6.7671 0.11924-12.891 0.70132-14.517 1.3799-1.5469 0.6455-4.7109 1.6842-7.0312 2.3081-2.3203 0.62396-5.2614 1.6137-6.5357 2.1995-5.473 2.5157-17.086 17.06-18.067 22.628-0.27254 1.5469-0.96565 4.1836-1.5402 5.8594-0.57459 1.6758-1.5047 4.418-2.067 6.0938-1.2434 3.7061-2.2857 24.851-1.3991 28.384 1.1435 4.5561 1.7298 1.6322 1.5554-7.7568-0.7481-40.269 33.136-70.715 65.003-58.409 4.1255 1.5932 1.7913 3.4148-2.5428 1.9844-38.138-12.587-71.263 34.163-56.751 80.094 4.4485 14.08 9.1122 26.319 10.959 28.761 0.90523 1.1969 2.2165 4.0746 2.914 6.395 0.69746 2.3203 2.061 6.6784 3.03 9.6846 1.9986 6.2 2.546 21.759 0.94971 26.994-1.0047 3.2947-2.4243 14.635-1.7399 13.899 2.6985-2.9022 6.5013-30.957 5.267-38.858-1.5967-10.221-2.0958-12.336-3.8135-16.162-0.98149-2.1858-1.7845-4.2167-1.7845-4.5132 0-0.29647-1.0438-2.8211-2.3196-5.6102-1.2758-2.7892-2.6105-6.2301-2.966-7.6464-0.35549-1.4164-1.4597-3.9537-2.4537-5.6385-3.3179-5.6234-6.1571-20.508-6.2548-32.791-0.32556-40.959 28.228-64.639 60.316-50.021 11.584 5.2772 23.145 7.9218 31.301 7.1601l6.2828-0.58679-3.6556 1.9829c-5.3746 2.9153-31.608-1.6961-33.219-5.8394-0.17188-0.442-1.3235-0.80363-2.5592-0.80363s-3.9735-0.69094-6.0841-1.5354c-17.201-6.8824-42.961 14.64-43.098 36.008-0.0123 1.9228-0.3824 5.0454-0.82243 6.9391-0.44004 1.8938-0.45534 3.7922-0.03399 4.2188 0.42134 0.42656 1.0047 3.9396 1.2963 7.8068 0.83352 11.054 3.3149 19.259 9.5383 31.538 3.1726 6.2598 6.2916 13.01 6.9311 15 0.63949 1.9902 1.8162 4.3664 2.6149 5.2804 1.1442 1.3094 1.5236 4.7881 1.7889 16.406 0.3578 15.669 0.03742 17.755-4.4238 28.807-5.668 14.05-7.489 19.14-7.489 20.95 0 1.0354-0.60346 2.486-1.341 3.2235-2.9731 2.973-5.9087 25.683-3.0089 23.277 0.70598-0.58591 1.0826-2.0653 0.8438-3.3145-0.87235-4.5634 4.4763-22.34 9.19-30.544 0.91967-1.6006 3.7446-7.448 6.5036-13.462 1.0312-2.2479 1.875-5.0466 1.875-6.2194 0-2.5557 1.886-9.4267 2.9927-10.903 3.5912-4.7898-3.6945-44.062-9.5442-51.447-1.3126-1.657-7.26-16.764-7.9352-20.156-0.71169-3.5756-3.2785-9.7348-3.8279-9.1854-0.61692 0.61691 3.932 17.058 5.9134 21.373 5.9538 12.965 13.668 35.272 12.725 36.797-0.73529 1.1897-2.1641-1.1043-2.19-3.5162-0.01107-1.0312-0.55855-2.9297-1.2166-4.2188-0.65807-1.2891-1.7572-4.2422-2.4425-6.5625-0.68529-2.3203-2.2222-6.3281-3.4154-8.9062-7.8724-17.01-14.633-42.715-10.575-40.207 0.64177 0.39663 0.69673-0.1513 0.16342-1.6292-11.1-30.759 24.059-55.455 55.283-38.832 8.907 4.742 18.721 6.1711 26.207 3.8163 2.7316-0.85921 5.5486-1.427 6.2599-1.2618 0.71133 0.16522 1.7871-0.64591 2.3907-1.8025 1.6238-3.1116 4.33-5.8658 5.7637-5.8658 1.9619 0 1.5047 1.6777-1.4841 5.4456-3.1884 4.0196-10.38 17.675-10.38 19.709 0 0.76292-1.1274 2.8652-2.5053 4.6717-3.0065 3.9417-8.8955 16.048-10.345 21.267-4.9102 17.68-6.9259 41.303-4.193 49.14 1.8182 5.2143 2.4516 20.54 1.0494 25.391-1.4 4.8431-1.2269 4.1889-2.2311 8.4337-1.4458 6.1118-3.4392 8.9137-8.7962 12.364-11.152 7.1832-15.011 10.224-19.203 15.131-4.3753 5.1213-7.7541 6.8818-18.988 9.8938-6.1555 1.6504-8.0831 4.4685-8.5425 12.489-0.2358 4.1166-1.1407 8.4668-2.2706 10.916-2.6148 5.6672-5.264 13.13-6.0429 17.022-1.0118 5.0565-5.4824 14.212-8.4983 17.405-1.493 1.5803-4.3091 4.634-6.2579 6.786-8.3466 9.2166-18.894 3.133-11.573-6.6749 4.6793-6.2685 5.1017-12.584 2.3933-35.785-0.71167-6.0962-0.59448-8.3297 0.63057-12.018 0.82758-2.4916 1.3232-5.7666 1.1014-7.2778s-0.08538-2.7476 0.30314-2.7476c3.5658 0 10.262-26.171 8.4776-33.135-0.54906-2.1431-1.8799-7.6443-2.9574-12.225-2.071-8.8-10.835-28.34-14.562-32.46-2.308-2.56-10.323-21.36-9.4682-22.21 0.2895-0.29-0.1598-1.85-0.9986-3.46-5.3196-10.21-5.4805-40.5-0.2795-52.61 0.88534-2.0625 1.8882-4.9057 2.2287-6.3182 0.34042-1.4125 1.9806-5.4203 3.6449-8.9062 2.7084-5.6729 4.9323-8.4077 16.836-20.704 2.0327-2.0997 12.064-10.478 12.545-10.478 0.24955 0 3.7055-0.69234 7.6798-1.5385 20.868-4.4431 33.469-2.4184 57.119 9.1777 11.013 5.3998 18.123 8.331 26.982 11.123 1.1814 0.3723 6.042-0.78124 8.1904-1.9438 0.89535-0.48448 2.2032-0.88087 2.9062-0.88087 0.70306 0 2.9541-1.214 5.0023-2.6977 10.934-7.9208 42.471-19.802 52.56-19.802 1.7507 0 4.0868-0.48367 5.1914-1.0748 7.0237-3.759 47.043-0.6308 56.755 4.4364 1.3857 0.72292 3.2103 1.317 4.0548 1.3202 2.1212 8e-3 13.546 5.4406 14.918 7.0937 0.61604 0.74229 1.4636 1.3496 1.8835 1.3496 0.41989 0 3.4844 1.8628 6.81 4.1396s7.4655 4.8703 9.1999 5.7634c1.7344 0.89308 4.8409 2.9665 6.9034 4.6076 8.0295 6.389 27.122 16.593 37.641 20.117 9.9842 3.345 13.143 3.7846 31.942 4.4451l14.271 0.5014 3.5976-2.8494c1.9787-1.5672 4.8382-3.1094 6.3544-3.4272 4.985-1.0448 10.208-2.582 13.211-3.8878 1.6248-0.70664 3.2458-1.2848 3.6021-1.2848 0.35637 0 1.7494-0.86636 3.0955-1.9252 1.8503-1.4554 3.2591-1.7918 5.7729-1.3782 2.9805 0.49032 3.4909 0.25249 4.9223-2.2935 1.1373-2.0229 2.2976-2.8406 4.0309-2.8406 1.3386 0 3.6519-0.62983 5.1405-1.3996 1.4886-0.76979 3.323-1.1631 4.0764-0.87394 0.75345 0.28912 2.236-0.40392 3.2945-1.5401 1.6004-1.7179 2.5554-1.9649 5.6701-1.4668 7.1325 1.1405 12.461-4.1621 10.27-10.221-1.9741-5.4594 3.3744-10.539 6.7783-6.4381 1.242 1.4965 6.486-7.0585 6.486-10.581 0-0.68576 1.2656-2.5712 2.8125-4.1899 1.751-1.8323 2.8125-3.9311 2.8125-5.5611 0-1.44 0.37725-2.8513 0.83832-3.1362 3.0226-1.868 7.8234-18.722 7.2223-25.356-0.85521-9.4376 5.0132-25.799 9.2532-25.799 1.3897 0 13.987-7.5353 14.416-8.6238 0.17822-0.45127 1.2748-1.9651 2.4369-3.364 1.6179-1.9477 2.2517-4.231 2.7056-9.7472 1.1604-14.102 7.0594-22.128 17.749-24.149 9.6792-1.8305 12.555 1.8738 6.5841 8.4824-1.8392 2.0358-3.0391 4.0065-2.6664 4.3792 0.37273 0.37274 1.9716-0.79857 3.553-2.6029 16.117-18.389 25.11-22.086 33.002-13.57 1.1069 1.1943 5.1389 3.868 8.9601 5.9414 12.907 7.0037 23.245 17.517 25.376 25.807 0.54486 2.1194 1.4328 5.1191 1.9733 6.666 0.54044 1.5469 0.9277 4.0157 0.86058 5.4862-0.0671 1.4706 0.31368 6.957 0.8462 12.192 0.76977 7.5675 0.70038 10.574-0.33855 14.67-0.71873 2.8334-1.5992 7.2024-1.9566 9.7089-0.35741 2.5065-1.6221 7.569-2.8104 11.25s-2.4531 10.068-2.8106 14.193c-1.4301 16.501-10.42 46.977-18.241 61.839-1.0749 2.0426-1.9544 4.4435-1.9544 5.3353s-0.32969 1.8252-0.73266 2.0743c-0.40295 0.24905-0.8366 1.817-0.96365 3.4844s-0.79724 4.3362-1.4893 5.9306c-5.704 13.142-8.5275 19.176-9.9105 21.18-4.1938 6.0784-4.8947 16.423-2.1976 32.432 2.6404 15.672-3.3012 36.31-13.485 46.841-3.8204 3.9507-4.7782 5.6709-5.7416 10.312-0.63592 3.064-1.7922 8.3081-2.5695 11.654-0.9016 3.8805-1.0723 6.1965-0.4714 6.3968 0.51803 0.17268 3.5914 2.1743 6.8297 4.448s7.323 4.8065 9.0772 5.6285c1.7542 0.82195 3.8635 2.2483 4.6875 3.1696 7.6049 8.5035 25.552 14.783 47.436 16.597 11.823 0.98017 17.841 9.356 17.789 24.762-0.0384 11.415-11.663 21.509-24.771 21.509-4.9591 0-11.258 2.0298-14.865 4.7904-1.1881 0.90912-4.9849 2.5856-8.4375 3.7254s-8.3868 2.9921-10.965 4.1161c-2.5781 1.124-8.8008 3.6702-13.828 5.6584-5.0273 1.9881-9.1406 3.9805-9.1406 4.4275 0 7.2556 28.986 29.621 38.57 29.76 4.1229 0.0596 12.265 5.1736 14.985 9.4122 0.83253 1.2972 3.9945 3.641 7.0265 5.2082 3.032 1.5673 6.7714 3.6699 8.3095 4.6726 2.0968 1.3668 4.4431 1.823 9.375 1.823h6.5783l0.31407 4.6875c0.30533 4.5569 0.49491 4.8311 6.8057 9.8438 9.946 7.9 13.416 15.872 8.0966 18.601-1.1502 0.59014-2.7242 1.4785-3.4976 1.9742-9.7341 6.2383-19.476 7.8821-32.563 5.4944zm26.38-6.2503c6.8789-2.9312 8.5449-4.6464 7.7067-7.934-0.64962-2.5479-8.7866-11.497-9.6598-10.624-0.35309 0.3531 0.70027 2.0268 2.3408 3.7194 6.4559 6.6608-1.5094 14.648-15.102 15.143-9.4374 0.34413-6.4055-2.5577 3.753-3.592 4.5571-0.46399 12.434-3.9459 12.45-5.5036 0.0159-1.5264-5.3361-8.1283-8.1838-10.095-3.4228-2.3638-2.4117-2.6301-16.462 4.3366-3.5043 1.7376-8.0394 3.426-10.078 3.752-3.4264 0.5479-3.7067 0.82086-3.7067 3.6089 0 9.7103 21.298 13.855 36.942 7.1884zm-318.8-11.062 3.6133-0.59695-0.61485-3.8459c-0.62702-3.922-4.0385-10.617-6.4153-12.589-1.0091-0.83746-3.6028-0.75016-11.07 0.3726-6.3052 0.94809-11.988 1.2446-16.08 0.83895-6.9572-0.68975-8.5354 0.72487-4.2188 3.7816 1.1602 0.82154 4.6186 3.3272 7.6854 5.5682s6.1308 3.8616 6.8088 3.6014c0.67803-0.26019 1.8967 0.078 2.7082 0.75144 2.4896 2.0662 11.399 3.1392 17.583 2.1177zm-227.65-3.55c3.8163-1.5946 3.9028-2.0755 1.2222-6.7911-3.9517-6.9515-7.1804-9.6377-9.893-8.2304-1.3056 0.67737-2.9596 1.0068-3.6754 0.73213-0.71585-0.2747-1.8235-0.0781-2.4615 0.43694-1.6574 1.3379-8.703 2.3912-14.988 2.2406-6.3099-0.15119-6.4667 0.19834-2.1035 4.6904 6.9274 7.1322 23.032 10.626 31.899 6.9214zm515.46-0.0478c0.77344-0.77344 2.0692-1.4062 2.8795-1.4062 0.81028 0 1.4732-0.40562 1.4732-0.90137s1.686-1.3554 3.7466-1.9102c8.9879-2.4202 17.92-10.191 13.614-11.843-1.0999-0.42208-2.9549 0.88784-6.302 4.4501-2.6088 2.7765-5.2149 5.0669-5.7914 5.0898-1.9318 0.0765-16.517 6.4116-16.517 7.1742 0 1.322 5.4371 0.80706 6.8973-0.65317zm4.2815-8.6744c7.058-4.3688 7.132-3.9809-1.5694-8.2235-3.9961-1.9484-7.7257-4.1714-8.2881-4.94-0.85897-1.174-1.421-0.87488-3.5156 1.8712-3.1828 4.1729-3.2458 6.9183-0.1765 7.6887 2.7314 0.68553 4.6141 3.7374 3.9268 6.3654-0.6816 2.6064 2.3607 1.7333 9.6228-2.7617zm-327.59 2.5807c-0.31-0.52-1.18-0.94-1.92-0.94s-1.35 0.42-1.35 0.94c0 0.51562 0.86865 0.9375 1.9303 0.9375 1.0617 0 1.6696-0.42188 1.3509-0.9375zm16.328-10.892c3.8239-0.7569 8.1079-1.1224 9.5201-0.81223 3.0478 0.6694 4.1604-0.65315 2.7565-3.2764-1.1418-2.1335-2.8229-2.531-2.8229-0.66745 0 1.766-15.144 3.7495-22.379 2.931-4.8581-0.54964-5.7461-0.42415-5.7461 0.81204 0 2.5632 8.5077 3.0249 18.671 1.0131zm317.9-0.35c0-0.78552-14.012-8.448-15.448-8.448-3.5019 0 10.562 8.8734 14.745 9.3028 0.38672 0.0397 0.70313-0.34498 0.70313-0.85485zm-313.55-5.8276c2.9132-1.3273 2.7583-5.9064-0.34159-10.098-5.2704-7.1271-19.618-4.5244-17.101 3.1022 0.58985 1.7873 0.79709 4.3468 0.46052 5.6877l-0.61 2.44h7.5575c4.1566 0 8.6732-0.50835 10.037-1.1297zm-21.658-10.443c2.9088-3.8137 3.0268-4.7706 0.41581-3.3733-1.4746 0.78917-2.2473 0.78282-3.0469-0.025-1.3497-1.3637 4.1302-6.2104 8.3038-7.3443 4.011-1.0897 4.3199-4.3265 0.5387-5.6447-1.5644-0.54533-4.8568-2.8358-7.3165-5.0899-5.8159-5.3298-17.297-13.021-26.344-17.648-15.922-8.1433-23.477-23.476-16.903-34.306 3.4248-5.642 10.328-27.661 12.381-39.49 1.2939-7.4559 2.8149-11.443 4.3651-11.443 3.4545 0 7.2658-27.018 4.5382-32.171-1.6198-3.06-11.337-11.816-13.158-11.856-0.87192-0.0193-1.846-0.4569-2.1647-0.97252-1.0992-1.7785-8.4766-1.0412-11.727 1.1719-4.457 3.0351-5.4793 4.9929-3.5924 6.8797 1.8453 1.8453 5.4752-1.0066 5.4752-4.3016 0-2.192 2.3606-2.53 3.1579-0.45218 1.9231 5.0116-5.877 11.177-10.019 7.9186-1.2446-0.97897-2.5277-1.5151-2.8514-1.1914s-1.3898-0.13661-2.3692-1.0229c-1.7136-1.5508-1.8946-1.4122-4.8108 3.6848-6.0157 10.514-16.568 12.767-23.91 5.104-3.3246-3.4701-3.1981-3.478-7.948 0.49043-2.1601 1.8047-4.5203 3.2812-5.245 3.2812-1.9513 0-1.6078 1.9501 1.0262 5.8264 1.2891 1.897 2.3438 3.822 2.3438 4.2778 0 1.2173 5.3654 5.5116 11.163 8.9344 3.0518 1.8017 5.7339 4.2502 6.7396 6.1526 2.1172 4.0048 5.3146 7.425 7.6274 8.1591 3.8522 1.2226 9.5628-3.2317 7.8-6.0841-0.6806-1.1012 1.3923-5.7929 2.3091-5.2263 4.1281 2.5513-0.17315 14.523-5.2179 14.523-2.617 0-3.0262 1.3732-0.78323 2.6284 1.2695 0.71046 1.3264 1.1949 0.35383 3.0122-0.90438 1.6898-0.91796 3.2426-0.0618 7.0684 1.2808 5.7233-0.94505 14.331-5.71 22.082-1.4615 2.3773-2.6573 4.7377-2.6573 5.2453 0 0.50759-0.82787 1.6721-1.8397 2.5878-3.09 2.7964-4.1492 7.4319-2.4043 10.521 4.3029 7.6186 4.8363 8.1699 8.9808 9.2815 6.585 1.7663 16.447 7.0954 27.426 14.82 5.5725 3.9205 10.464 7.1282 10.87 7.1282 6.3729 0 23.502 18.11 21.674 22.916-1.9517 5.1334-1.4036 6.0173 3.9643 6.3928 2.707 0.18937 5.2168 0.42236 5.5773 0.51774 0.36047 0.0954 1.7316-1.2375 3.0469-2.962zm-49.316-47.467c-3.4984-2.8836-6.5549-12.745-5.1141-16.5 0.88174-2.2978-1.9103-12.961-5.0513-19.292-1.53-3.12-2.8-6.26-2.8-6.98 0-2.0502 1.8239-1.5356 2.8335 0.79934 0.50164 1.1602 1.2694 2.7422 1.7061 3.5156 1.9871 3.5192 2.8026 5.5397 4.2615 10.558 1.6874 5.8045 2.9719 7.2992 2.0044 2.3325-0.62709-3.2195-2.2206-7.5292-5.6327-15.234-2.5957-5.8614-3.88-16.406-1.9983-16.406 0.85949 0 1.4797 1.847 1.9164 5.7068 0.39394 3.482 2.1318 9.0556 4.4577 14.297l3.812 8.5901 0.0321 12.933c0.025 10.09 0.29499 12.833 1.2279 12.475 1.3716-0.52631 7.0746 3.0714 7.6508 4.8265 0.79834 2.4314-5.7652 1.2885-9.2912-1.6178zm-24.978-13.333c-1.6735-1.6735-1.367-5.8187 0.61836-8.3607 2.9164-3.7343 6.6914-12.552 6.6914-15.63 0-2.7526 1.3915-4.7452 2.5233-3.6134 0.28796 0.28797 0.52356 1.6293 0.52356 2.9808s0.58008 2.6798 1.2891 2.9519c2.9789 1.1431-0.72059 15.471-5.1945 20.118-2.0782 2.1587-5.1149 2.8901-6.4511 1.5539zm7.4263-9.7658c2.6915-5.936 3.5316-10.364 1.7585-9.2682-0.51563 0.31867-0.9375 1.181-0.9375 1.9162 0 0.73526-1.2656 3.3937-2.8125 5.9077s-2.8125 5.4984-2.8125 6.6319c0 3.315 1.859 1.3075 4.804-5.1877zm19.052-16.38c-0.34621-0.56017 0.64788-2.3531 2.2091-3.9844 8.1084-8.472 4.7868-24.629-4.6479-22.608-3.3558 0.71874-4.3143-1.1686-1.2928-2.5454 9.484-4.3212 17.052 9.4009 12.197 22.114-2.0528 5.3753-6.9653 9.4508-8.4656 7.0233zm-3.2311-36.95c-0.98475-1.1866-0.60005-1.6397 2.4633-2.9018 7.9051-3.2568 9.9668-4.5415 12.653-7.884 4.1459-5.159 8.3212-14.607 8.3212-18.83 0-3.0012 0.32928-3.6658 1.8161-3.6658 5.1596 0-4.0385 23.15-11.265 28.353-7.148 5.146-12.301 6.9616-13.988 4.9287zm61.65 116.96c1.16-0.25 2.11-0.88 2.11-1.39 0-1.3202-4.8582 0.0212-6.5625 1.812-1.2619 1.326-1.2138 1.4035 0.46875 0.75525 1.0312-0.39733 2.8242-0.92827 3.9844-1.1799zm194.68-20.395c7.5802-2.8532 12.741-2.9675 18.046-0.39962 4.5216 2.1889 8.1302 2.1004 8.5703-0.21018 0.22036-1.1569-1.2177-2.0506-5.6998-3.5421-6.4291-2.1395-10.459-5.5242-11.476-9.6377-1.2527-5.0691-5.3191-5.8165-4.9748-0.91432 0.39477 5.6198-4.5399 14.912-7.347 13.835-0.65276-0.25049-1.4362-0.052-1.7409 0.44111-0.72499 1.173-6.0684 1.166-6.0684-7e-3 0-0.49748 0.94922-1.4101 2.1094-2.0281 3.6722-1.9561 5.3272-5.4181 7.6668-16.037 1.1493-5.2166-5.592-8.0805-12.31-5.2297-6.2811 2.6653-18.904 13.578-18.993 16.419-0.0193 0.61891-0.75541 1.5283-1.6356 2.021-1.3191 0.73822-0.94378 1.0725 2.1354 1.9016 2.0547 0.55329 6.2554 2.0518 9.3348 3.33 7.4692 3.1004 14.257 3.1185 22.384 0.0596zm-0.37853-6.5712c0-0.71738 0.73828-1.7343 1.6406-2.2599 0.90235-0.52557 1.3872-0.96841 1.0775-0.98408-0.30971-0.0157-0.21941-2.2027 0.20066-4.8601 0.42008-2.6574 0.51527-5.2337 0.21155-5.7251-0.85955-1.3908-2.1625 1.3185-2.1785 4.5299-7e-3 1.5837-0.81932 4.5344-1.8032 6.5571-1.7506 3.599-1.7602 5.6605-0.0214 4.5859 0.47999-0.29665 0.87272-1.1263 0.87272-1.8437zm59.062-8.71c0-0.4125-0.49242-1.2424-1.0943-1.8443-0.83402-0.83402-0.6668-1.2323 0.70313-1.6746 0.98856-0.31918 3.9241-1.5685 6.5234-2.7762s5.8728-2.4837 7.2745-2.8355c1.4017-0.35179 2.7804-1.0148 3.0638-1.4733 0.28337-0.4585 1.5098-0.83364 2.7255-0.83364s2.3565-0.4387 2.5353-0.9749c0.45463-1.3639 15.972-8.117 20.227-8.8026 1.931-0.31114 7.496-0.77575 12.367-1.0325 10.052-0.52978 15.858-1.8229 16.575-3.6914 0.26975-0.70297 2.108-2.3991 4.085-3.7692 4.9439-3.4261 6.2293-6.8237 4.8471-12.812-0.59-2.58-1.08-5.76-1.08-7.07 0-1.6279-1.3777-3.6388-4.3843-6.3993l-4.3843-4.0254-10.374-0.67766c-15.927-1.0405-25.569-4.4633-40.744-14.464-2.7732-1.8276-6.781-4.4492-8.9062-5.8256-2.1252-1.3765-4.286-2.8658-4.8016-3.3095-7.3184-6.2985-10.678-7.2596-12.629-3.613-1.3001 2.4292 0.76035 4.9454 7.4016 9.0389 1.3284 0.81879 2.9763 2.1683 3.6621 2.9989 0.68578 0.83062 2.7952 1.979 4.6875 2.552 5.602 1.6963 14.811 6.6251 19.283 10.321 2.294 1.8956 5.5741 3.9729 7.2891 4.6161 8.4137 3.1556 10.805 4.3171 13.013 6.3197 1.3173 1.1948 3.1102 2.1724 3.9844 2.1724 0.87412 0 1.5893 0.58768 1.5893 1.306 0 4.8291 14.32 2.7995 16.091-2.2807 1.1488-3.2954 3.2554-3.1921 2.8661 0.14057-1.0245 8.7695-17.091 10.688-24.421 2.916-2.4841-2.634-3.4905-3.1524-4.672-2.4071-2.7601 1.741-17.408-2.5539-28.383-8.322-11.6-6.0968-28.074-12.915-31.205-12.915-1.2015 0-3.5527-0.47694-5.2249-1.0599-4.5874-1.5992-12.13 1.2839-18.714 7.1536-5.7674 5.1413-6.6011 6.5129-4.0477 6.6594 0.92897 0.0532 6.1023 1.3725 11.496 2.9315 9.965 2.8802 14.495 3.732 33.714 6.3396 5.9297 0.80453 13.605 1.8735 17.056 2.3755 3.4509 0.502 10.095 0.91273 14.766 0.91273 7.8655 0 10.586 0.87074 7.0084 2.2434-8.8296 3.3882-83.314-8.1725-86.618-13.444-0.67174-1.0716-7.5283 1.7584-7.505 3.0977 0.0155 0.89 6.3042 9.6536 10.449 14.562 0.90518 1.0718 4.5193 1.1937 20.394 0.6881 16.046-0.51106 20.162-0.36709 24.45 0.85531 6.4037 1.8254 31.186 4.3943 35.625 3.6927 4.7746-0.75465 15.216 2.6215 12.539 4.0543-1.1179 0.59827-4.0698 0.8-7.1119 0.48603-4.9103-0.50679-5.6392-0.29001-13.048 3.8804-8.3302 4.6888-16.709 7.9647-21.694 8.4821-4.1208 0.42765-15.919 3.056-19.034 4.2404-4.1045 1.5605-1.8647 2.1452 3.5279 0.921 2.7375-0.62146 7.9304-1.7766 11.54-2.5671 10.954-2.3989 16.47-4.035 20.022-5.939 5.0447-2.7038 6.2724-2.3572 3.8249 1.08-2.383 3.3466-12.492 8.3865-21.035 10.487-4.5788 1.1259-10.925 3.2082-12.504 4.1028-0.17431 0.0987 0.64331 1.4783 1.8169 3.0657 1.9735 2.6693 4.5938 3.8878 4.5938 2.1362zm59.016-31.632c-2.3456-0.72292-5.2668-2.381-6.4916-3.6847l-2.2268-2.3703h2.0418c1.123 0 3.6161 0.84375 5.5402 1.875 7.134 3.8236 12.962 2.2167 14.217-3.9201 0.93902-4.5913 2.9032-4.4803 2.9032 0.16405 0 7.9327-6.1257 10.974-15.984 7.936zm-31.829 21.645c13.838-5.7785 18.132-7.928 15.938-7.9791-1.7803-0.0414-9.5652 2.8625-19.219 7.169-10.046 4.4818-14.491 6.4183-17.578 7.6587-1.418 0.56974-2.5781 1.4548-2.5781 1.9667 0 0.51193 2.4258-0.0729 5.3906-1.2998 2.9648-1.2268 11.086-4.6088 18.047-7.5155zm-30 0.25581c0.96682-0.6127 0.2597-0.73619-2.2628-0.3952-2.018 0.27279-4.1274 0.97762-4.6875 1.5663-1.2126 1.2744 4.6502 0.28656 6.9503-1.1711zm-6.4951-7.7029c2.2833-0.72012 7.3154-1.8253 11.183-2.456 10.937-1.7837 14.028-2.6899 21.291-6.241 10.562-5.1645 10.581-5.9236 0.15222-5.9724-4.8327-0.0227-11.951-0.47349-15.818-1.0019-3.8672-0.5284-16.28-1.1243-27.584-1.3242l-20.553-0.36347 4.6154 4.1898c2.5384 2.3044 6.5138 5.2095 8.8341 6.4557 2.3203 1.2463 5.4147 3.5612 6.8764 5.1443 2.9602 3.2061 4.9248 3.4862 11.004 1.5691zm-511.36-6.92c8.4358-8.0494 16.034-28.746 12.583-34.272-3.5238-5.6425 0.12142-26.999 7.3196-42.883 5.3947-11.905 7.1795-20.424 7.0605-33.704l-0.11341-12.656-4.0055-9.375c-2.203-5.1562-4.7402-10.219-5.6382-11.25-0.89798-1.0312-1.9361-2.9297-2.3068-4.2188-0.37076-1.2891-1.2007-3.1875-1.8443-4.2188-12.018-19.256-9.3777-59.544 4.805-73.328 3.2924-3.1999 3.76-4.0162 2.3004-4.0162-14.099 0-22.28 45.906-12.78 71.719 1.8975 5.1562 4.2967 11.695 5.3314 14.531 1.0347 2.8359 2.2741 5.633 2.7541 6.2156 9.1874 11.151 9.0723 41.436-0.25237 66.441-0.57686 1.5469-2.0493 6.6094-3.2721 11.25s-2.4625 9.0703-2.7549 9.8438c-0.29242 0.77344-0.60543 7.3348-0.69558 14.581-0.16027 12.883-0.232 13.309-3.2374 19.229-4.416 8.6993-11.008 16.757-13.232 16.175-2.1602-0.5649-3.2355 0.95914-2.4417 3.4604 1.0543 3.3217 4.4504 2.1733 10.421-3.524zm560.98-28.28c0-0.47563-1.4684-1.3494-3.2632-1.9418-1.7948-0.59233-6.4794-3.1765-10.41-5.7426-3.9309-2.5661-11.005-6.508-15.721-8.7597-4.7157-2.2517-11.486-6.3021-15.045-9.0009-4.3092-3.2676-6.8422-4.6253-7.5825-4.0641-0.61136 0.46345-2.8514 2.1083-4.9779 3.6551-4.7124 3.428-4.8644 4.2188-0.81108 4.2188 5.1993 0 14.326 3.4633 31.293 11.874 8.8759 4.4 18.368 8.5442 21.094 9.2094 2.7257 0.66511 5.0613 1.2559 5.1902 1.313 0.12891 0.057 0.23438-0.28549 0.23438-0.76113zm-541.39-18.52c0.46802-4.5174 0.46731-4.5187-0.90386-1.7084-1.5814 3.2412-2.0269 10.45-0.48217 7.8022 0.5047-0.86505 1.1284-3.6072 1.386-6.0938zm9.0701-16.136c1.7053-0.97406 5.4161-2.3059 8.2463-2.9597 4.0726-0.9408 6.2234-2.2025 10.312-6.0495 2.8417-2.6734 7.6573-6.7205 10.701-8.9934 3.044-2.2729 7.3114-5.4665 9.4831-7.0969 7.6582-5.7495 11.65-17.567 10.357-30.661-1.2228-12.379-1.947-16.087-3.5373-18.112-0.5412-0.6891-0.52968-1.7586 0.0303-2.8125 0.49696-0.9353 0.93875-4.3624 0.98175-7.6158s0.2915-6.2604 0.55222-6.6822c0.26072-0.42185 0.72521-4.0881 1.0322-8.1473 1.1186-14.791 9.3876-39.499 15.804-47.224 2.9332-3.5312 6.999-11.25 5.9257-11.25-0.63977 2.6e-4 -3.4835 0.88656-6.3195 1.9696-3.9984 1.5269-6.2088 1.8258-9.8438 1.3312-2.5781-0.35085-5.7422-0.74242-7.0312-0.87014-3.1518-0.3123-5.6225-1.7249-11.759-6.7232-9.9487-8.1033-18.524-8.7895-27.153-2.1727-3.0903 2.3697-6.7452 4.8991-8.1219 5.621-14.383 7.5418-15.913 32.56-3.5836 58.601 4.9498 10.454 11.824 29.855 12.588 35.524 0.3472 2.5781 1.0872 6.1312 1.6443 7.8958 0.7402 2.3441 0.70675 5.3743-0.12418 11.25-3.3476 23.672-5.0173 29.774-10.269 37.533-5.4957 8.1184-5.4655 10.815 0.08551 7.6443zm154.56-22.5c3.5991-2.1887 7.458-7.7111 7.4078-10.601-0.0362-2.0798-0.0887-2.0648-1.43 0.40723-2.8991 5.3431-11.991 8.135-16.513 5.0706-3.3791-2.2901-4.448-4.3557-2.2539-4.3557 0.8164 0 1.4844 0.43547 1.4844 0.96771 0 3.248 9.6952 2.2746 12.921-1.2974 2.6291-2.911 4.1262-7.9088 2.9998-10.014-1.7885-3.3419 1.0063-4.1736 3.0466-0.90663 1.1258 1.8027 4.4699 2.6553 4.4699 1.1396 0-1.2182 4.9195-3.6675 8.7517-4.3573 4.5427-0.81774 4.6667 2.2003 0.14546 3.5423-4.4274 1.3141-5.5224 2.0398-6.9972 4.6367-2.0804 3.6634-0.39128 4.19 3.036 0.94647 4.0303-3.8143 6.901-5.2486 11.738-5.8648l4.0176-0.51176-7.4474-4.4531c-4.0961-2.4492-8.2996-4.4531-9.3412-4.4531s-2.5444-0.65062-3.3397-1.4458c-1.8724-1.8724-4.2155-0.44345-9.3511 5.703-2.0977 2.5106-5.3647 5.0894-7.7344 6.1051-2.2564 0.96723-4.1026 2.1846-4.1026 2.7053s-1.2656 1.6012-2.8125 2.4011c-1.6207 0.8381-2.8125 2.2056-2.8125 3.2272 0 0.97504-0.4885 1.9356-1.0856 2.1346-1.8095 0.60316-2e-3 5.4641 3.1134 8.3747 3.4188 3.1936 7.7821 3.5179 12.089 0.89853zm191.23-105.71c1.1091-3.9147 0.57082-9.2246-1.0358-10.217-0.47664-0.29458-0.87462 1.2798-0.88596 3.5049-0.0113 2.2218-0.85507 5.8788-1.875 8.1265s-1.8523 4.9899-1.8498 6.0938c7e-3 3.0841 4.2403-2.5443 5.6465-7.5076zm12.705 2.0496c0.81144-3.233-0.0171-10.012-2.2844-18.692-1.1776-4.5079-1.7724-9.0944-1.5198-11.719l0.41502-4.312-1.5086 4.681c-1.6037 4.976-0.8705 10.668 2.1397 16.611 1.4827 2.9272 1.8499 8.2894 0.86908 12.692-0.80375 3.6084 0.99248 4.3102 1.889 0.73815zm25.242-14.366c5e-3 -13.618 0.042-13.866 2.9326-19.419 1.6104-3.0938 3.2271-7.4158 3.5926-9.6045 0.36552-2.1887 1.0498-4.2175 1.5205-4.5085 1.4292-0.8833 0.95654-2.4512-0.64144-2.1277-0.93854 0.18998-2.2923 2.8138-3.6273 7.0305-1.1714 3.7-3.0289 7.8702-4.1276 9.267-2.3608 3.0013-2.7357 12.195-0.86629 21.246 0.90531 4.383 0.88924 6.0806-0.0804 8.4939-2.3971 5.9659-2.4938 7.0127-0.47075 5.0912 1.5701-1.4912 1.764-3.1878 1.7681-15.469zm-31.491 0.2389c-2.9994-8.8798-3.3952-6.611-0.77941 4.4681 2.0384 8.6333 2.2943 9.1963 2.5541 5.6176 0.17025-2.3459-0.5577-6.483-1.7746-10.086zm-11.409-2.5096c-0.14343-8.0116-0.52305-11.604-1.1589-10.968-0.52739 0.52771-0.799 3.9313-0.6141 7.6956 0.18233 3.7122 0.36676 9.1778 0.40984 12.146 0.0447 3.0788 0.40003 4.8906 0.8274 4.2188 0.41199-0.64772 0.65309-6.5391 0.53578-13.092zm33.95-2.0248c-1.9218-6.4831-2.1169-13.953-0.50623-19.377 1.7014-5.7291 1.7855-6.5275 0.68758-6.5275-3.1229 0-5.397 16.256-3.2651 23.34 0.68625 2.2803 1.2917 6.7156 1.3454 9.8563l0.0976 5.7104 1.3945-4.5642c1.1481-3.7578 1.1916-5.2485 0.24632-8.4375zm-37.794 6.679c-0.5904-2.1944-1.0081-7.085-0.92816-10.868 0.14472-6.8503 0.13797-6.8702-1.6734-4.9258-2.1056 2.2601-1.7838 8.5165 0.83364 16.209 1.8427 5.4152 3.2478 5.0855 1.768-0.41488zm99.637-5.2337c2.4722-2.0009 3.5044-3.7033 3.9978-6.5935 0.95089-5.5701 2.693-8.7302 6.007-10.897 2.4086-1.5745 5.616-5.9807 4.8217-6.6239-0.12351-0.10002-2.9454-0.86209-6.2708-1.6935-4.3424-1.0857-6.6446-2.2425-8.1694-4.1052-4.9733-6.0751-0.36358-11.779 5.2066-6.442 2.7348 2.6201 7.2874 4.3172 11.581 4.3172 3.1994 0 3.2582-0.91512 0.24056-3.75-3.7126-3.4878-2.7196-11.25 1.4392-11.25 2.1608 0 2.4956 2.6206 0.43577 3.411-3.2337 1.2409-0.29768 7.839 3.4882 7.839 2.2472 0 5.4181-1.6535 5.4181-2.8254 0-0.51147-0.96311-0.4456-2.284 0.15622-4.581 2.0873-7.1642-2.0618-3.6804-5.9113 1.2039-1.3302 1.2959-1.9857 0.42601-3.0339-0.90985-1.0963-0.51631-1.5328 2.1859-2.4246 3.2436-1.0705 16.546-14.18 21.903-21.586 3.1126-4.3027 12.423-13.125 13.851-13.125 1.6671 0 3.957-3.0282 2.6284-3.4758-1.8364-0.61869 0.79547-4.8348 3.6419-5.8341 3.1525-1.1067 3.1617-1.2713 0.23437-4.1987-7.2771-7.2771 1.1655-22.073 9.921-17.388 5.242 2.8054 6.2962 18.491 1.3928 20.725-2.0585 0.93794-0.61394 23.296 1.5052 23.296 3.4063 0 5.5082-20.492 3.3417-32.578-0.56579-3.1564-0.43681-3.9844 0.62072-3.9844 0.82683 0 1.5761 1.4273 1.9685 3.75 0.99332 5.8794 5.5414 0.59857 7.4685-8.6719 0.40276-1.9375 1.0887-2.5781 2.7602-2.5781 5.2996 0 2.6468 11.092-4.7158 19.717-3.8512 4.5118-5.4656 9.3454-3.1213 9.3454 1.3374 0 7.2052-6.3741 9.0619-9.8438 2.2603-4.2238 2.6368-1.0857 0.43239 3.604-1.0368 2.2056-3.7925 5.5732-6.1238 7.4836-3.9228 3.2144-6.1286 6.6708-4.9862 7.8132 0.93047 0.93047 7.0447-2.6627 9.9342-5.838 1.6111-1.7705 3.3409-3.2191 3.844-3.2191 3.3559 0-4.8449 8.859-10.815 11.684-4.7174 2.2317-7.8027 6.4203-3.5042 4.7574 0.90234-0.34909 2.9062-0.87636 4.4531-1.1717 3.9034-0.74526 7.696-2.7733 8.8312-4.7223 0.52557-0.90235 0.96842-1.135 0.98409-0.51707 0.073 2.8784-4.8812 6.2534-12.359 8.4192-9.7377 2.8204-11.748 5.198-5.2074 6.1579 3.7898 0.55623 7.4869-0.64783 12.785-4.1638 4.204-2.7899 5.2307-2.9436 4.3511-0.65151-1.7087 4.4528-15.676 8.711-19.771 6.0277-3.6903-2.418-7.3375-1.2374-6.525 2.1122 1.8722 7.7189 9.78 15.823 14.511 14.871 5.1049-1.0269 6.1447-1.0523 5.9936-0.14618-0.086 0.5158-0.58913 4.8142-1.1181 9.5519-1.1162 9.9973-2.5018 13.191-8.3344 19.209l-4.251 4.386 3.1799 1.9386c4.0442 2.4655 3.8785 2.4975 5.7129-1.1013 10.107-19.828 15.18-40.186 17.229-69.141 1.7303-24.452 1.373-33.022-1.9156-45.938l-0.59677-2.3438 1.5675 2.1094c2.16 2.9067 2.8863 2.6647 4.2207-1.4062 0.6338-1.9336 1.7676-4.4616 2.5195-5.6178 0.75195-1.1562 1.1231-2.7382 0.82478-3.5156-0.81464-2.1229-3.4138-1.7246-3.4138 0.52314 0 3.182-1.7865 5.5634-4.1736 5.5634-1.228 0-2.4184 0.52734-2.6455 1.1719-0.22707 0.64453-1.0951-0.43557-1.9289-2.4002-0.83381-1.9647-3.4254-5.807-5.759-8.5386-4.7482-5.5578-4.995-6.1706-2.4852-6.1706 1.9401 0 2.9297-3.2166 2.9297-9.5224 0-2.9335 0.42012-3.8245 2.1094-4.4738l2.1094-0.81074-2.3823-0.93638c-1.3102-0.51501-2.9978-1.68-3.75-2.5888-1.3778-1.6646-11.752-6.9783-13.626-6.9797-3.2137-0.00235-5.0597 4.2857-4.9847 11.579 0.0971 9.4467 2.1764 9.4943 2.3893 0.05467 0.22032-9.766 0.21916-9.7596 1.752-9.7596 2.1276 0 3.4744 4.5083 3.0249 10.126-0.39047 4.8789-0.35355 4.9642 2.0271 4.6875 2.28-0.26502 2.4248-0.58978 2.4248-5.4381 0-3.9376 0.32938-5.1562 1.3936-5.1562 4.0308 0 6.0716 15.662 2.1153 16.234-1.8527 0.26764-1.9959 0.68944-1.4893 4.3856 0.98511 7.1871-12.465 23.244-21.941 26.194-3.5388 1.1017-2.5405-1.9896 1.2185-3.7734 3.8172-1.8114 11.672-9.1174 11.672-10.857 0-0.64222-1.8236 0.62205-4.0524 2.8095-4.1506 4.0735-10.948 6.5114-10.948 3.9266 0-0.70775-0.73993-0.97601-1.8741-0.67943-5.806 1.5183-1.1773-6.1395 5.8935-9.7505 3.0971-1.5816 5.7668-3.6627 6.2205-4.849 1.1353-2.9683 4.4412-5.6824 6.1314-5.0338 1.7071 0.65508 1.9268 5.4159 0.38797 8.4079l-1.0532 2.0477 1.9907-2.0702c6.5202-6.7805 0.8969-14.743-6.9968-9.9073-2.3366 1.4314-5.2626 3.1454-6.5023 3.8091-3.1774 1.7009-8.4369 8.4698-9.7488 12.547-1.3061 4.0587-3.2182 5.8986-5.2998 5.0998-1.2814-0.49171-1.1465-0.99552 0.92556-3.4581 1.334-1.5854 2.4255-3.5494 2.4255-4.3646 0-0.81516 2.1094-4.8046 4.6875-8.8654 4.5918-7.2325 4.6875-7.5323 4.6875-14.685 0-7.7458 2.0251-15.571 4.2508-16.425 2.2474-0.86243 2.392 0.94604 0.4397 5.5006-2.037 4.7521-2.3678 7.0382-1.0186 7.0382 0.47265 0 1.6661-2.4258 2.6522-5.3906 1.1688-3.5144 2.5301-5.7614 3.911-6.4559 2.6782-1.3469 1.4295-2.1513-4.3534-2.8046-6.2-0.697-10.85 1.4514-14.56 6.713-1.62 2.304-3.28 4.189-3.67 4.189-0.39644 0-2.5301 1.7242-4.7414 3.8317-2.2113 2.1074-4.7883 4.5326-5.7267 5.3892-1.311 1.1968-1.6366 2.6434-1.4062 6.2465l0.29982 4.6889-8.4256 2.9136c-10.553 3.6494-23.865 12.995-15.715 11.033 3.6734-0.88442 11.49-4.9042 14.603-7.5095 7.9864-6.6842 14.672-0.01467 14.691 14.657 8e-3 5.5372 0.35018 6.6075 3.7522 11.719 2.66 3.9964 3.7449 6.6203 3.747 9.0625 2e-3 1.8967 0.52825 3.6273 1.1748 3.861 0.79452 0.28712 0.3804 1.2934-1.286 3.125-1.3518 1.4858-3.1923 5.0946-4.0899 8.0195-1.8127 5.9068-6.5126 12.267-7.73 10.461-0.40622-0.60258-2.2115-1.2354-4.0116-1.4062-4.1135-0.3904-4.2426-1.9105-0.23196-2.7307 4.4637-0.91294 5.8826-2.4862 5.7417-6.3666l-0.12342-3.4008-0.57971 3.2612c-0.74712 4.203-4.5234 5.8696-8.3779 3.6974-2.449-1.3802-2.5386-1.3429-3.4518 1.4372-1.4994 4.5648-3.79 3.7-3.5516-1.3409 0.25943-5.4851 5.3472-10.75 10.537-10.903 1.8302-0.05409 5.0151-0.20274 7.0776-0.33034l3.75-0.232-3.2812-0.84261c-3.5319-0.90699-9.8069-0.40525-14.858 1.188-3.1538 0.99487-6.6343 6.4067-6.6843 10.393-0.0113 0.90234-0.6534 1.6406-1.4268 1.6406-1.9963 0-1.7431-2.6935 0.70312-7.4808 3.4689-6.7888 5.9025-7.9751 16.548-8.066 12.359-0.10564 14.154-1.8916 8.9286-8.8803-4.6297-6.1916-5.3788-8.5151-5.6169-17.422-0.34392-12.868-3.3684-15.697-10.771-10.072-5.0801 3.8598-13.815 7.5077-21.979 9.1793-8.1286 1.6642-8.96 2.3087-12.811 9.9299-1.7772 3.5174-2.141 5.7774-2.1883 13.594-0.0535 8.8534-0.27137 9.8705-3.9149 18.281-8.5999 19.852-7.5601 23.277 9.3353 30.751 4.3118 1.9073 6.6527 6.7628 3.2504 6.742-5.691-0.0348-18.491-6.0908-21.015-9.9426-2.6184-3.9962-3.8443-2.3333-8.7177 11.825-1.8636 5.4141-4.7427 11.7-6.3981 13.969-3.2215 4.4153-3.6932 6.5353-1.8614 8.3671 0.9062 0.9062 0.89936 1.5472-0.0324 3.0392-1.5829 2.5346 0.40299 6.8486 3.3459 7.2683 2.7661 0.3945 2.7145 2.0442-0.0639 2.0442-3.4015 0-5.4464-2.1067-6.4238-6.6181-2.1152-9.763-2.1889-9.1838 1.906-14.99 5.0367-7.142 4.9697-8.9807-0.1145-3.144-2.1914 2.5157-4.9544 5.4905-6.1401 6.6105-1.3228 1.2496-1.7756 2.2714-1.1719 2.6445 1.9298 1.1927 1.0743 3.1579-1.1256 2.5856-1.8888-0.49131-1.8024-0.24118 0.82572 2.3919 1.6367 1.6398 3.2105 4.4086 3.5577 6.2591 0.72628 3.8714 2.4833 4.9834 13.365 8.4586 14.81 4.7298 23.545 1.9054 25.045-8.0981 0.46111-3.0749 1.4969-5.0722 3.776-7.2812 3.9612-3.8393 5.2601-2.2434 1.4734 1.8103-1.8032 1.9303-2.8089 3.9952-2.8089 5.7669 0 6.7853-12.437 18.567-14.347 13.59-0.2948-0.76825-2.7428-1.4999-6.2422-1.8657-3.1665-0.33097-8.7941-1.8223-12.506-3.3141-3.7118-1.4918-6.8641-2.611-7.0052-2.4873-1.277 1.1207 2.0063 3.4552 7.5725 5.3842 3.7105 1.2859 9.0667 3.2518 11.903 4.3686 6.8847 2.7113 13.111 2.1508 17.742-1.5969zm-7.7623-9.3031c0.52471-2.0065-4.993-2.3799-6.9997-0.4737-1.3735 1.3048-7.6674 1.6294-7.6674 0.39553 0-2.8425 6.2952-7.7723 10.102-7.9108 3.2236-0.11723 3.8846-0.42763 3.3781-1.5862-0.34636-0.79226-0.82795-4.0772-1.0702-7.2999-0.51947-6.9103 1.1265-8.0991 1.9214-1.3876 0.29128 2.4595 1.2284 6.3618 2.0824 8.6719 2.3935 6.474 2.6543 8.3127 1.3947 9.8305-1.6044 1.9332-3.668 1.7757-3.141-0.23977zm-5.2921-3.5156 3.2812-1.2636-2.9702-0.0713c-3.6431-0.0875-6.1016 0.77737-5.4066 1.9019 0.64436 1.0426 1.0262 1.0001 5.0955-0.56698zm-14.766-4.9118c-3.9889-1.3638 7.1416-24.465 12.656-26.268 1.928-0.63032 1.3283 2.2559-1.058 5.0919-3.7466 4.4526-7.9976 12.297-9.2438 17.058-0.74754 2.856-1.6137 4.3708-2.3545 4.1176zm123.01-32.354c0.35988-1.1602 1.1966-4.2187 1.8595-6.7969 1.3189-5.1296 4.8601-11.719 6.2981-11.719 0.98507 0 0.31466 2.806-1.5679 6.5625-0.64601 1.2891-1.4871 3.8203-1.8691 5.625-0.38201 1.8047-1.2874 4.4414-2.012 5.8594-1.6053 3.1416-3.6473 3.495-2.7086 0.46875zm-81.07-29.6c0-0.96729 5.227-4.8638 6.5245-4.8638 1.7689 0 1.0185 1.4906-1.7991 3.5737-2.86 2.11-4.73 2.62-4.73 1.29zm-9.375-3.8569c0-5.8025 22.55-26.644 25.566-23.629 0.69435 0.69435 0.31477 1.2464-1.2725 1.8509-3.2752 1.2472-19.37 15.721-21.012 18.895-1.5026 2.9057-3.2816 4.4684-3.2816 2.8826zm-4.6875-1.0381c0-0.53277 0.99956-2.9586 2.2212-5.3906 1.2217-2.4321 3.19-7.586 4.374-11.453 2.3269-7.6 3.5816-9.8856 4.7728-8.6944 1.6138 1.6138-8.1966 26.507-10.446 26.507-0.50693 0-0.9217-0.4359-0.9217-0.96866zm54.592-60.861c0.29324-4.322-1.3804-5.5501-2.0832-1.5286-0.61329 3.5096-2.8217 4.3895-2.8217 1.1243 0-1.5046 1.5636-4.1511 4.2188-7.1407 5.9689-6.7206 5.5323-7.2152-1.5264-1.7294-2.4874 1.9332-3.697 3.8176-4.5016 7.0129-1.3552 5.3819-3.3593 4.3752-2.3434-1.1771 0.52529-2.8708 2.0926-5.0212 7.4343-10.2 3.7228-3.6094 7.509-7.7227 8.4139-9.1406 3.023-4.7374 6.1811-3.4736 3.38 1.3527-0.98972 1.7053-2.2946 4.9989-2.8997 7.3192-0.60513 2.3203-1.6965 4.8878-2.4253 5.7055-0.7288 0.81771-1.5588 3.349-1.8444 5.625-0.93069 7.4164-3.4758 9.7713-3.0012 2.777zm-36.09 144.61c1.2367-1.889 1.668-4.469 1.6847-10.078 0.0124-4.1465 0.37449-8.6993 0.80476-10.117 0.882-2.9066-0.62031-3.4956-3.5158-1.3784-1.3526 0.98903-1.4664 1.6584-0.64793 3.811 1.4177 3.7288 1.226 10.968-0.41344 15.614-2.0143 5.7092-0.95624 6.7981 2.0878 2.1485zm-10.05-6.24c0-4.9448-0.82534-3.9014-1.8022 2.2786-0.68973 4.3632-0.62587 4.7692 0.50651 3.2206 0.71266-0.97462 1.2957-3.4492 1.2957-5.4991zm4.1518 5.4247c0.81028-0.81026 1.547-3.1306 1.6373-5.1562 0.0903-2.0257 0.23789-4.9629 0.32813-6.5271 0.0903-1.5642-0.2417-3.0949-0.73763-3.4014-1.6064-0.99283-2.538 1.8959-2.5527 7.9155-0.0106 4.36-0.37943 6.0289-1.4206 6.4284-0.77344 0.29681-1.4062 0.91637-1.4062 1.3768 0 1.3522 2.555 0.96081 4.1518-0.63602zm-67.981-24.87c1.1655-1.5764 1.9026-3.0828 1.6381-3.3474-4.125-4.125-8.1228 18.102-5.1605 28.691 0.0816 0.29202 0.43085-4.646 0.77591-10.973 0.53928-9.8886 0.92498-11.907 2.7465-14.371zm-36.123 16.196c0.37874-2.4709 0.27483-3.8392-0.26616-3.5049-1.2022 0.743-2.2614 5.8584-1.4761 7.129 0.86086 1.3929 1.0258 1.0498 1.7422-3.6241zm48.32-6.4935c0.0382-1.1602-0.30015-2.1094-0.75192-2.1094-0.97041 0-2.0163 10.355-1.1836 11.719 0.55132 0.90274 1.7922-5.2578 1.9356-9.6094zm120.88 7.3696c-1.2384-0.97409-3.721-2.3859-5.517-3.1373-1.796-0.75142-7.9751-5.1224-13.731-9.7133-8.9258-7.1189-13.518-9.9817-24.963-15.561-1.9868-0.96855-3.4775-0.2511-3.4775 1.6736 0 0.75919-0.52734 1.5655-1.1719 1.7918-0.64453 0.22633-2.4375 0.88935-3.9844 1.4734l-2.8125 1.0619 2.3436 0.89738c1.967 0.75317 2.6754 0.51166 4.4082-1.5028 4.5068-5.2395 13.398-1.0581 34.162 16.067 3.9402 3.2495 7.737 5.9231 8.4375 5.9414 0.70047 0.0183 2.3283 0.63614 3.6173 1.373 3.4499 1.9722 5.3347 1.7164 2.6888-0.36482zm3.0316-5.0258c0.60439-1.1602 2.4846-3.273 4.1784-4.6953 5.5854-4.6902 7.8548-21.291 2.9174-21.341-6.1341-0.0621-14.962-7.6629-16.223-13.968-1.0438-5.2192-12.36-2.5404-15.715 3.7203l-1.7815 3.324 3.4605 4.644c7.1483 9.5929 8.2927 10.869 10.496 11.707 2.7029 1.0276 2.9908 2.7806 0.45673 2.7806-2.5725 0-6.9506-3.9724-11.454-10.393-4.2204-6.0166-4.649-6.2844-6.4966-4.0582-0.67847 0.81751-2.8395 2.1289-4.8023 2.9143-3.3807 1.3527-4.9534 4.0368-2.3652 4.0368 2.0791 0 10.958 6.2144 16.541 11.577 9.0381 8.6814 18.929 13.321 20.788 9.7512zm-47.91-7.56c0-1.6159-7.1112-6.2603-9.5854-6.2603-1.688 0-10.442-1.3011-16.407-2.4386-1.1471-0.21874-2.667-1.5073-3.3776-2.8634-0.75831-1.4473-1.5481-2.0512-1.9121-1.4622-1.8577 3.0059 3.488 5.8284 14.832 7.8314 9.3485 1.6506 11.497 2.348 12.959 4.2058 1.9351 2.4601 3.4907 2.9 3.4907 0.98732zm-6.56-19.39c0-0.51563-0.84375-0.9375-1.875-0.9375s-1.875 0.42187-1.875 0.9375c0 0.51562 0.84375 0.9375 1.875 0.9375s1.875-0.42188 1.875-0.9375zm14.488-1.9441c2.3484-1.5849 4.6809-3.6499 5.1834-4.5889 0.50254-0.939 2.1882-2.1516 3.746-2.6946 1.5578-0.54303 2.8323-1.5767 2.8323-2.297 0-2.1961 3.3055-4.4653 8.5008-5.8358 8.4896-2.2395 10.257-5.9096 10.656-22.126 0.14739-5.991 0.5629-11.37 0.92336-11.953 0.82374-1.3328 0.0225-1.3486-2.4088-0.04747-1.041 0.55713-2.5356 2.5515-3.3213 4.432-1.657 3.9657-5.9252 10.446-10.057 15.269-1.5878 1.8534-5.6292 6.6945-8.9808 10.758-3.3516 4.0634-8.371 9.5469-11.154 12.185-8.3147 7.8821-5.1943 13.158 4.0801 6.8989zm-69.038-3.9153c-0.16157-1.6758-0.71565-3.0469-1.2313-3.0469-0.51563 0-1.0697 1.3711-1.2313 3.0469-0.22265 2.3092 0.0755 3.0469 1.2313 3.0469s1.4539-0.73766 1.2313-3.0469zm20.556-8.2716c-1.9386-1.0234-4.4699-3.3198-5.625-5.1032-2.2387-3.4563-3.5065-4.1365-3.5065-1.8813 0 1.7372 8.9998 8.9425 11.1 8.8866 0.85604-0.0228-0.0297-0.87872-1.9683-1.9021zm83.57-18.971c-0.0953-4.1798-0.21191-4.4697-0.82658-2.054-1.0762 4.2294-1.0762 8.1651 0 7.5 0.51562-0.31868 0.88759-2.7694 0.82658-5.446zm-34.58-14.712c0-1.5469-0.46701-2.8125-1.0378-2.8125s-0.78036 0.67088-0.46571 1.4909c1.041 2.7128-0.51043 3.393-2.8104 1.2322-2.6892-2.5264-3.7124-2.0168-1.7051 0.84913 2.267 3.2366 6.019 2.763 6.019-0.75969zm71.79-13.881c0.48-6.927 0.37-9.557-0.41-9.557-0.65237 0-1.0741 1.7419-1.0782 4.4531-4e-3 2.4492-0.24178 7.4062-0.52915 11.016-0.36398 4.5717-0.23659 6.1201 0.41994 5.1043 0.51832-0.80203 1.2386-5.7591 1.6007-11.016zm-36.24 1.693c-0.0396-1.8047-0.29803-2.6484-0.57446-1.875-1.0364 2.8998-3.2962 3.8625-5.1433 2.1909-3.1252-2.8283-1.9382-8.7534 1.7536-8.7534 1.4406 0 2.1733-0.4447 1.9309-1.1719-0.7077-2.1231-4.7846-1.3337-6.0522 1.1719-2.8226 5.5792 0.0655 12.008 5.3106 11.82 2.6236-0.09369 2.8411-0.3588 2.7748-3.3829zm36.624-16.172c-0.0116-1.7057-0.18827-1.8403-0.92315-0.70312-1.1746 1.8176-1.1746 2.8125 0 2.8125 0.51562 0 0.93104-0.94922 0.92315-2.1094zm-36.78-20.113c1.6758-1.7571 3.0327-3.6986 3.0154-4.3145-0.0172-0.61584-1.3406 0.48315-2.9406 2.4422s-4.539 4.3934-6.5311 5.4097-3.622 2.2955-3.622 2.8427c0 1.4634 6.5558-2.6868 10.078-6.3801zm28.359 0.71491c0-1.0008 0.36888-2.0476 0.81972-2.3263 0.76579-0.47328-0.0568-6.9504-1.4371-11.315-0.9127-2.8864 2.1507-0.04928 4.4752 4.1446 1.7935 3.2359 1.8364 3.2557 1.28 0.59134-0.53052-2.5403-5.2048-9.4622-7.4574-11.043-1.1804-0.82852-2.149 2.2253-2.2745 7.171-0.0514 2.0259-0.57899 5.0262-1.1724 6.6673-0.91889 2.5411-0.81455 3.3465 0.70313 5.4277 2.1272 2.9171 5.0634 3.3132 5.0634 0.68309zm-73.587-7.6547 4.1179-1.0369-0.14855-5.3596c-0.19096-6.8899 3.9186-15.749 7.959-17.157 5.3116-1.8516 3.2176-3.1491-2.514-1.5578-9.5576 2.6535-22.134 26.149-13.997 26.149 0.2557 0 2.318-0.46661 4.5828-1.0369zm40.38-9.275c0.425-2.8164 0.3245-3.9071-0.30232-3.2812-0.5164 0.51562-1.1699 2.7816-1.4521 5.0354-0.6722 5.3673 0.92005 3.7753 1.7544-1.7541zm10.24 436.64c-1.8853-2.1914-3.9923-5.3226-4.6822-6.9583s-2.4498-3.7353-3.9108-4.6658c-1.461-0.93054-2.8674-1.9126-3.1252-2.1823-1.4534-1.5206-8.5526-6.6004-12.188-8.7208-5.0034-2.9187-12.737-10.538-11.483-11.313 0.48386-0.29904 2.5151 0.9542 4.5138 2.785s5.5447 4.4255 7.8798 5.766c2.3352 1.3406 5.5899 3.5185 7.2328 4.8399s5.1853 4.09 7.872 6.1525c3.4214 2.6264 5.5232 5.1812 7.015 8.5266 1.5392 3.4517 2.9312 5.1085 5.0186 5.9731 3.1994 1.3252 3.9052 3.7815 1.0866 3.7815-0.99107 0-3.3445-1.793-5.2298-3.9844zm-537.66-13.83c0-0.51563 0.63281-0.9375 1.4062-0.9375 0.77344 0 1.4062 0.42187 1.4062 0.9375 0 0.51562-0.63281 0.9375-1.4062 0.9375-0.77344 0-1.4062-0.42188-1.4062-0.9375zm4.8867-2.0039c0.2105-0.6315 1.7664-1.614 3.4575-2.1834s3.4796-1.7586 3.9744-2.6427c1.2852-2.2966 2.8658-1.9863 2.5122 0.49315-0.30389 2.1308-2.8191 3.7263-7.657 4.8571-1.9002 0.44417-2.5596 0.29309-2.2872-0.52411zm10.113-8.94c0-0.45692 0.84375-1.5532 1.875-2.4362 1.5726-1.3465 1.8778-2.7786 1.8922-8.8802 0.02521-10.677 2.3641-25.355 5.2121-32.708 1.3721-3.5428 2.8571-7.3908 3.3001-8.5509 0.44298-1.1602 1.4529-2.1094 2.2443-2.1094 1.2826 0 1.276 0.38185-0.06151 3.5156-2.7258 6.3868-3.1696 7.7225-4.9927 15.026-0.99393 3.9818-2.2751 13.542-2.847 21.245s-1.1366 14.102-1.255 14.221c-0.77205 0.77205-5.3676 1.3522-5.3676 0.67755zm424.69-49.41c-7.1253-2.5645-12.175-5.8266-20.757-13.408-3.4241-3.025-7.4319-6.111-8.9062-6.8579-1.4744-0.74682-4.4358-2.926-6.5809-4.8425-2.3797-2.1261-5.3036-3.7343-7.5-4.125-9.5997-1.7076-16.462-7.3416-17.658-14.497-0.38589-2.3091-1.5016-5.3288-2.4793-6.7106-1.7249-2.4378-1.276-4.1162 0.75324-2.8165 1.6682 1.0685 5.003 8.3748 5.003 10.961 0 4.3581 5.0047 7.6069 16.406 10.65 3.3866 0.90391 12.546 7.5771 22.031 16.051 9.8999 8.8447 14.272 11.258 26.655 14.712 1.5116 0.42165 2.7772 1.1885 2.8125 1.7041 0.11721 1.7116-3.6119 1.3983-9.7796-0.82157zm22.704-9.0056c-5.327-11.434-26.983-30.756-37.47-33.432-2.1038-0.53683-3.0159-3.1475-1.0997-3.1475 1.3708 0 18.135 9.997 23.365 13.934 10.352 7.7908 24.219 29.191 18.915 29.191-0.36384 0-2.0339-2.9457-3.7113-6.546zm-15.2-37.77c0-0.14118 2.4338-2.7779 5.4083-5.8594 6.137-6.3576 12.535-18.259 9.8161-18.259-0.39215 0-2.1851 2.8207-3.9844 6.2682-3.4064 6.527-13.47 17.932-14.439 16.364-0.66669-1.0787 0.28491-3.8825 1.3177-3.8825 2.4963 0 11.415-12.038 12.694-17.134 0.92504-3.6856 2.8173-4.9266 5.5875-3.6644 4.0773 1.8577-0.82366 12.676-10.165 22.439-3.0826 3.2217-6.2345 5.1062-6.2345 3.7277zm-418.44-9.74c-2.0722-2.0722 3.1485-8.75 6.8409-8.75 2.5396 0 12.989-7.2763 19.815-13.797 6.352-6.0686 9.2819-8.041 9.2819-6.2484 0 3.0508-17.653 17.722-26.016 21.621-6.8139 3.1771-9.2041 5.7677-4.2188 4.5726 4.847-1.162 22.345-13.259 27.266-18.85 2.0202-2.2951 3.9363-4.1729 4.258-4.1729 3.1373 0-5.5254 10.049-12.595 14.61-2.2901 1.4776-5.7951 4.0454-7.7888 5.7062-5.1289 4.2725-14.824 7.3284-16.844 5.3089zm298.28-3.5927c-0.25723-0.25722-2.3314-0.83545-4.6094-1.285-17.029-3.3602-46.501-12.496-52.892-16.396-1.0312-0.62923-5.6719-2.7827-10.312-4.7855-4.6406-2.0028-9.0703-4.1537-9.8438-4.7799-0.77344-0.62614-4.1484-2.5064-7.5-4.1784s-7.3706-4.1451-8.9312-5.4959-4.4083-3.2901-6.3281-4.3097c-3.6934-1.9615-4.313-3.0457-2.2032-3.8553 1.4385-0.55201 9.9495 4.5127 11.131 6.6237 0.76087 1.3596 24.427 13.662 28.832 14.988 1.2891 0.38799 4.875 1.9816 7.9688 3.5414 6.4591 3.2564 25.291 10.087 27.81 10.087 0.93122 0 5.5026 1.2656 10.159 2.8125 4.656 1.5469 9.9505 2.8125 11.766 2.8125 3.5203 0 8.2475 2.4645 7.3897 3.8525-0.56897 0.92063-1.7101 1.0927-2.4355 0.36729zm2.4341-4.3246c-0.3543-0.57328-0.12323-1.3643 0.51351-1.7578 0.76311-0.47162 0.82613-0.92042 0.18489-1.3167-0.53504-0.33068-1.2378-0.17248-1.5617 0.35156-1.6945 2.7418-8.8336-0.21906-15.799-6.5522-8.597-7.8172-15.55-10.301-31.194-11.142-10.252-0.55119-11.713-0.85519-15-3.1216-2.003-1.381-6.0677-3.4348-9.0325-4.5638-2.9648-1.1291-5.3906-2.4162-5.3906-2.8603 0-1.5779 4.4374-0.77162 8.9817 1.632 11.458 6.0606 11.253 5.9981 19.7 5.9981 5.505 0 10.252 0.62686 14.637 1.9328 5.8581 1.7446 11.448 2.0878 6.8371 0.4197-1.0312-0.37305-3.1406-1.2152-4.6875-1.8714-1.5469-0.65619-7.2422-1.479-12.656-1.8285-16.576-1.07-31.815-12.169-31.889-23.225-7e-3 -1.1807-0.44638-2.7795-0.9744-3.553-0.70844-1.0377-0.89377-0.30061-0.70716 2.8125 0.19267 3.214-0.0776 4.2188-1.135 4.2188-0.86543 0-1.3083-0.76872-1.1765-2.0421 0.2881-2.783-2.8675-9.6515-6.8027-14.807-3.2786-4.2952-4.246-8.0062-2.0806-7.9812 0.64453 7e-3 2.3319 2.1168 3.7497 4.6875 1.6322 2.9593 3.2058 4.674 4.2897 4.674 2.6404 0 5.4698 3.6977 7.1734 9.375 2.5015 8.3364 5.3526 13.065 9.8653 16.362 7.7241 5.6437 10.02 6.3897 21.562 7.0067 6.808 0.36393 11.686 1.0874 13.237 1.963 1.3504 0.76266 4.1143 2.3017 6.1419 3.4201s5.3524 3.679 7.3884 5.6903c5.2308 5.1672 16.736 10.624 23.062 10.938 4.404 0.21889 5.0527 0.50793 5.3268 2.3735 0.2933 1.9962 0.0815 2.0853-3.5156 1.4775-3.14-0.54-3.82-0.39-3.82 0.83 0 1.7292-4.2059 2.0888-5.221 0.44635zm-79.15-56.16c-0.59918-1.1196-1.2954-1.8296-1.5472-1.5778-0.25176 0.25177 0.0829 1.3234 0.7436 2.3814 0.66074 1.058 1.357 1.768 1.5472 1.5778s-0.14443-1.2618-0.7436-2.3814zm233.44 56.78c0-0.22418 2.2148-2.65 4.9219-5.3906 4.2336-4.2861 5.3057-6.163 7.6664-13.421 2.1841-6.7145 3.8292-9.7776 8.0564-15 9.1383-11.29 15.404-24.4 17.698-37.031 0.90978-5.0098 2.4825-3.4242 2.1112 2.1285-0.65226 9.753-7.9967 25.564-16.096 34.651-3.7761 4.2367-11.233 20.001-11.233 23.747 0 1.0736-4.867 6.4357-7.8184 8.6138-2.569 1.8958-5.3066 2.7737-5.3066 1.7018zm-113.7-5.6135c-6.2595-2.574-7.8811-3.7503-8.6918-6.3048-0.54537-1.7183-4.8745-4.162-5.7761-3.2604-0.22203 0.22203 0.12751 1.2543 0.77675 2.2939 3.8778 6.2093-12.47 8.357-18.229 2.3948-2.2641-2.3441-10.044-19.163-9.3791-20.277 1.1559-1.9372 4.1038 1.6859 5.5419 6.8113 4.154 14.805 21.981 20.705 19.714 6.5242-0.99327-6.2116 2.1967-5.7298 7.1748 1.0836 10.83 14.822 29.488 11.794 35.795-5.8088 1.8714-5.223 5.2724-21.542 4.6898-22.503-0.17873-0.29492-0.39361-2.4043-0.47752-4.6875-0.0839-2.2832-0.70949-6.0497-1.3902-8.37-2.4162-8.2361-2.7478-14.285-0.76235-13.908 1.2272 0.2327 1.8258 1.2957 2.0292 3.6036 0.15867 1.8005 1.0629 7.7033 2.0094 13.117 1.7743 10.149 1.7496 11.334-0.49644 23.768-3.901 21.596-17.03 31.897-32.528 25.524zm103.98 1.0992c0.39042-0.64453 2.0466-3.0703 3.6804-5.3906 12.675-18.001 14.996-37.5 4.4633-37.5-1.383 0-2.1803-0.55426-2.1803-1.5155 0-1.1846 0.56291-1.3748 2.5781-0.87073 1.418 0.35465 3.58 0.75479 4.8045 0.88919 5.7182 0.62761 6.4255 15.866 1.1139 23.997-0.84202 1.2891-2.5346 4.4531-3.7613 7.0312-3.6212 7.6105-8.353 14.531-9.9352 14.531-0.93215 0-1.2125-0.43039-0.76338-1.1719zm-36.191-9.3098c0.0183-0.68039 0.63613-2.2918 1.373-3.5808 0.89689-1.5689 1.3508-5.3115 1.373-11.321 0.0306-8.2615 0.21405-9.1471 2.3012-11.108 6.2756-5.8956 8.9033-21.74 6.136-36.998-1.8757-10.342-2.7344-12.817-8.8187-25.417-5.1026-10.567-5.485-11.719-3.8894-11.719 1.7146 0 2.5954 1.3242 5.6123 8.4375 1.4215 3.3516 3.1418 7.3594 3.8228 8.9062 4.4908 10.199 5.381 13.203 6.4986 21.924 1.7181 13.407 0.55881 23.674-3.6179 32.043-2.225 4.4581-3.255 8.0748-3.7379 13.125-1.1411 11.934-7.3214 25.698-7.0532 15.708zm-191.5-25c-4.5657-1.5878-5.542-3.6054-1.5425-3.1879 2.9592 0.30887 9.2717 3.1189 9.2717 4.1273 0 1.1498-2.6467 0.8281-7.7291-0.93934zm-224.33-9.05c-0.02534-9.2946 0.50261-11.744 1.8015-8.3594 0.73161 1.9066 0.71609 13.342-0.02184 16.095-1.1669 4.3544-1.7537 1.8039-1.7797-7.7358zm434.08 7.9611c-0.32175-0.5206 0.2835-2.0507 1.345-3.4001 4.0974-5.2089 7.8401-19.606 7.8876-30.341 0.0451-10.174-0.29793-11.913-4.5298-22.969-1.3816-3.6094-2.8314-7.8281-3.2217-9.375s-2.6749-7.4649-5.0769-13.151c-4.54-10.747-5.0425-12.63-3.371-12.63 1.1249 0 5.6528 9.5517 7.555 15.938 0.69117 2.3203 3.076 7.5938 5.2996 11.719 7.9279 14.707 8.7558 23.038 4.7978 48.281-1.5053 9.6005-8.3191 19.758-10.686 15.928zm-214.21-7.32c-4.9626-2.2488-15.407-13.669-19.873-21.731-1.2855-2.3203-3.6426-6.5391-5.238-9.375-3.5102-6.2398-6.1451-13.755-5.454-15.556 0.96479-2.5142 2.2972-1.2953 3.9179 3.5843 5.6795 17.099 17.036 33.749 26.854 39.37 6.4526 3.6943 6.2879 6.6505-0.20649 3.7076zm-121.88-5.6354c0-0.39632 0.50625-1.2268 1.125-1.8456 0.875-0.875 0.68403-1.125-0.85938-1.125-1.0914 0-2.1983-0.52734-2.4599-1.1719-0.3715-0.91557-0.66808-0.89763-1.356 0.082-2.5432 3.6216-7.9676-1.2111-10.43-9.2924-0.69541-2.282-2.0089-5.8436-2.9188-7.9146-0.90997-2.0711-1.9593-6.6121-2.3319-10.091-0.37257-3.4791-0.94405-6.4891-1.2699-6.689-1.201-0.7365-0.0558-18.361 1.1931-18.361 0.87863 0 1.2173 2.6256 1.2999 10.078 0.17217 15.535 6.4318 37.526 11.202 39.357 4.8638 1.8664 8.9565-5.5531 8.515-15.436-0.31461-7.0425 0.8439-9.3498 2.2431-4.4674 0.75912 2.6489 1.038 17.097 0.38911 20.156-0.92933 4.3817-1.8445 6.483-3.0198 6.934-0.7269 0.27894-1.3216 0.1829-1.3216-0.21341zm372.16-21.486c-0.0175-4.5117-0.62912-13.055-1.3591-18.984-2.2971-18.66-4.5889-49.109-3.9015-51.835 1.3678-5.4236 2.2029-1.1822 2.7692 14.065 0.32152 8.6565 1.2333 19.958 2.0262 25.114 1.8089 11.764 3.731 36.456 2.9885 38.391-1.4394 3.7509-2.4935 0.93113-2.5234-6.75zm-373.14-13.01c-1.3937-3.6658-0.7718-7.2947 1.3182-7.6914 2.7463-0.52128 4.1197 1.468 2.0555 2.9774-1.2594 0.92088-1.5628 1.924-1.118 3.6961 0.8406 3.3492-1.0457 4.2004-2.2557 1.0179zm383.53-15.734c-2.645-4.2797-4.4425-10.861-5.1428-18.831-0.31717-3.6094-0.81718-8.5664-1.1111-11.016-0.42236-3.5192-0.24803-4.4531 0.83133-4.4531 1.0578 0 1.5136 2.061 2.0214 9.1406 2.113 29.458 14.981 33.164 21.734 6.2586 0.30332-1.2085 1.1379-2.684 1.8547-3.2788 2.7839-2.3104 2.3353 1.8742-0.95412 8.9-1.84 3.9302-3.3455 7.5046-3.3455 7.9433 0 5.9622-12.836 10.273-15.888 5.3359z" fill="inherit"/></g></svg>